<svg width="1305" height="357" viewBox="0 0 1305 357" fill="none" xmlns="http://www.w3.org/2000/svg">
<path d="M470.059 16.0993C525.833 10.4205 575.653 51.0242 581.344 106.797C587.033 162.569 546.44 212.397 490.668 218.098C434.881 223.801 385.036 183.194 379.345 127.405C373.653 71.6169 414.27 21.7803 470.059 16.0993ZM492.648 192.177C505.018 189.933 514.411 186.661 524.451 178.758C548.77 159.619 555.185 127.157 549.965 97.9087C546.836 80.3761 536.365 63.364 521.478 53.3427C504.682 42.1024 489.128 41.1238 469.652 42.4422C450.68 45.4238 434.206 53.0784 423.217 68.8953C401.549 100.082 404.588 157.155 437.513 180.018C453.192 190.905 474.238 195.276 492.648 192.177Z" fill="#2F50E4"/>
<path d="M611.901 20.1015C631.061 19.9186 650.228 19.8415 669.388 19.8703C692.206 19.8372 718.437 17.572 738.525 29.9997C754.078 39.72 762.077 54.5972 762.401 72.7656C762.934 102.57 743.601 121.923 715.333 128.016C733.283 155.715 756.454 186.268 775.715 213.688C770.286 213.745 742.824 214.53 740.066 212.957C723.649 186.704 701.494 157.286 683.882 130.737C672.016 130.097 653.44 130.615 641.365 130.67C640.162 154.987 641.242 188.816 641.25 213.806C632.206 213.653 620.707 213.433 611.85 214.058L611.901 20.1015ZM641.257 106.598C652.172 106.483 663.088 106.474 674.004 106.572C689.866 106.624 711.719 108.713 723.671 96.5956C735.876 83.9894 734.954 58.0929 719.769 50.3793C700.803 40.7504 663.074 44.2778 641.329 44.3483L641.257 106.598Z" fill="#2F50E4"/>
<path d="M965.472 19.9271L1110.75 19.7773L1110.72 44.107C1100.9 43.4885 1084.81 44.1293 1074.25 44.1308L994.842 44.2589C994.727 62.5757 994.252 82.6356 994.921 100.773C1005.87 100.326 1019.3 100.692 1030.4 100.7L1097.65 100.805C1097.94 108.117 1097.67 117.434 1097.64 124.892L1009.67 124.974L994.892 124.962C994.374 142.08 994.064 172.398 994.971 189.238C1007.56 188.79 1022.22 189.128 1034.93 189.122L1110.73 189.182C1110.69 197.366 1110.7 205.55 1110.77 213.733L1015.26 213.698C1000.98 213.693 979.261 213.033 965.465 213.998L965.472 19.9271Z" fill="#2F50E4"/>
<path d="M1268.98 18.826C1280.17 18.7208 1291.34 18.6726 1302.52 18.6805C1279.53 50.1853 1256.65 82.23 1233.36 113.475L1304.61 213.7L1281.66 213.72L1270.53 213.615C1253.32 190.309 1233.7 160.7 1217.24 136.506C1200.39 162.036 1180.15 187.473 1162.93 213.671C1151.68 213.743 1140.42 213.724 1129.16 213.615C1150.73 181.875 1177.91 144.74 1201.29 114.198C1195.83 105.038 1185.83 91.7243 1179.51 82.7585C1164.54 61.4357 1149.43 40.2215 1134.17 19.1154L1151.85 18.7929C1157.23 18.6474 1162.61 18.7137 1167.98 18.9894C1171.59 23.9576 1175.14 29.1763 1178.57 34.2856C1191.34 53.2814 1205.11 71.6967 1217.65 90.8228L1268.98 18.826Z" fill="#2F50E4"/>
<path d="M779.754 20.0212L941.529 20.0039C941.724 27.7355 941.493 36.0634 941.414 43.8389C920.188 44.6425 897.068 44.0866 875.69 44.0528L875.676 153.86L875.589 213.653L846.99 213.783C847.364 194.394 846.961 173.462 846.968 153.977L846.846 44.2328C827.441 43.7165 798.899 43.592 779.617 44.1932C779.898 36.3147 779.754 27.9393 779.754 20.0212Z" fill="#2F50E4"/>
<path d="M851.695 246.673L939.193 246.652C939.43 250.85 939.315 256.098 939.315 260.378L903.249 260.437C903.645 270.22 903.364 283.394 903.278 293.322C903.163 306.725 903.141 320.129 903.228 333.532L888.013 333.601L887.977 260.349L851.724 260.41L851.695 246.673Z" fill="#2F50E4"/>
<path d="M533.695 246.78L561.589 246.744C591.379 246.655 617.664 247.027 619.766 286.314C620.53 300.597 618.658 312.384 608.541 323.364C596.204 335.021 575.779 333.64 559.998 333.608L534.105 333.716C533.81 314.535 534.35 294.988 534.13 275.784C534.028 266.831 534.554 255.436 533.695 246.78ZM549.316 319.486C563.727 319.565 587.232 322.152 597.552 312.211C606.309 301.009 607.267 275.342 595.526 266.302C585.397 258.504 561.986 260.864 549.28 260.981C549.281 280.365 549.077 300.134 549.316 319.486Z" fill="#2F50E4"/>
<path d="M960.695 246.771C976.853 246.681 1019 243.789 1031.29 251.963C1036.33 255.293 1039.76 260.561 1040.78 266.516C1044.02 284.829 1034.55 294.758 1016.94 297.676C1025.4 309.648 1033.93 321.567 1042.53 333.432L1030.19 333.663C1029.4 333.682 1026.92 333.671 1026.42 333.397C1020.23 330.036 1003.52 304.101 1000.48 298.565L976.14 298.587C976.14 310.263 976.061 321.939 975.902 333.614L960.854 333.684L960.695 246.771ZM976.162 285.558C987.207 285.646 1014.32 287.587 1022.34 281.836C1023.69 280.17 1024.37 279.014 1025.17 276.974C1033.91 254.689 989.871 260.646 976.133 260.314C976.09 268.729 976.097 277.143 976.162 285.558Z" fill="#2F50E4"/>
<path d="M491.528 246.889L506.371 246.791C506.004 270.983 506.554 295.308 506.307 319.511C506.261 323.999 506.68 328.649 506.097 333.088L504.858 333.672L492.622 333.605C476.512 316.122 453.153 287.142 437.914 268.393L437.725 333.458L422.938 333.664C424.181 314.215 422.128 292.2 422.991 272.517C423.244 266.757 421.995 251.988 423.304 246.988C428.206 246.713 434.288 246.864 439.282 246.86C456.333 267.192 473.856 289.132 491.481 308.887C490.51 292.515 491.528 264.026 491.528 246.889Z" fill="#2F50E4"/>
<path d="M1234.15 245.467C1255.13 243.422 1274.47 245.914 1283.51 267.56L1269.48 273.519C1263.14 257.097 1248.95 258.063 1234.07 259.305C1227.76 259.832 1218.49 264.572 1220.72 272.191C1222.74 279.112 1232.27 279.645 1238.1 280.655C1251.23 282.934 1265.81 283.098 1277.44 290.212C1288.11 296.842 1288.37 312.947 1282.03 322.492C1275.85 331.62 1262.66 333.679 1252.67 335.36C1230.83 335.544 1211.65 334.251 1202.7 310.899C1207.36 309.04 1212.43 307.35 1217.19 305.676C1224.65 321.764 1235.04 321.618 1251 321.912C1261.72 322.108 1280.31 311.125 1266.36 302.431C1253.56 294.445 1227.14 298.593 1213.6 288.67C1209.77 285.867 1206.19 282.37 1205.29 277.332C1202.31 256.319 1215.94 248.266 1234.15 245.467Z" fill="#2F50E4"/>
<path d="M784.082 245.471C804.675 242.971 824.26 246.585 833.389 267.404C828.738 269.548 824.015 271.549 819.241 273.405C817.606 269.508 816.274 266.33 812.876 263.663C805.632 257.985 794.35 258.241 785.609 259.236C780.957 259.766 774.866 260.814 771.849 264.786C770.142 267.03 769.854 270.172 770.322 272.883C772.086 283.018 814.229 281.102 827.32 290.776C831.741 294.04 834.318 298.58 835.074 303.999C835.945 310.318 834.808 317.957 830.833 323.106C824 331.945 811.457 333.844 801.132 335.27C778.574 336.021 761.502 333.564 751.695 310.725C756.908 308.816 761.264 307.206 766.621 305.796C772.511 320.533 786.365 322.696 800.614 321.8C804.855 321.533 816.145 318.618 818.341 314.706C827.204 299.708 800.664 297.424 790.008 296.302C766.65 293.84 743.71 284.69 759.198 256.491C762.74 250.033 776.14 246.603 784.082 245.471Z" fill="#2F50E4"/>
<path d="M1110.82 246.804L1185.06 246.688C1184.82 251.155 1184.92 255.871 1184.93 260.362L1126.24 260.344C1126.2 267.639 1126.25 274.934 1126.35 282.229C1143.25 281.767 1161.14 282.062 1178.08 282.111L1178.03 295.795L1138.16 295.768L1126.17 295.762L1126.32 319.625C1145.69 319.306 1165.67 319.808 1185.25 319.61L1185.14 333.514C1160.89 334.052 1135.21 333.636 1110.86 333.645C1110.53 304.825 1110.79 275.651 1110.82 246.804Z" fill="#2F50E4"/>
<path d="M713.997 246.764L729.11 246.799L729.161 260.74C729.168 295.079 737.736 332.709 691.042 335.379C627.644 339.006 644.327 290.095 642.182 246.868L657.849 246.76C658.31 265.48 656.906 284.761 658.289 303.406C659.851 324.51 695.003 326.348 707.293 314.81C713.212 309.247 713.86 301.014 713.86 293.35C713.867 277.827 713.81 262.295 713.997 246.764Z" fill="#2F50E4"/>
<path d="M379.031 246.795H394.886C394.741 256.288 395.34 331.579 394.182 333.168L392.187 333.343L379.636 333.552C378.992 328.392 379.192 302.768 379.378 296.369C379.81 281.51 378.261 261 379.031 246.795Z" fill="#2F50E4"/>
<path d="M1067.71 246.679L1082.92 246.678L1082.91 333.519L1067.7 333.657C1068.44 306.33 1067.72 274.313 1067.71 246.679Z" fill="#2F50E4"/>
<path d="M147.694 3.18164C152.82 1.92065 158.766 0.670935 164.009 0.320509C239.506 -4.73096 304.163 50.5764 325.441 120.447C345.415 186.029 330.217 255.968 282.065 305.104C268.873 318.566 253.068 327.975 236.393 336.155C241.758 331.48 246.866 326.518 251.694 321.29C284.771 285.02 297.39 232.703 294.557 184.74C291.31 129.774 272.83 84.7612 231.899 47.6512L223.357 41.4267C182.248 12.0405 137.523 17.2628 107.962 59.2028C58.9873 128.683 72.686 269.507 143.323 319.721C99.6105 300.135 72.0805 259.065 58.9652 214.107C36.9812 138.748 63.2716 27.3871 147.694 3.18164Z" fill="#2F50E4"/>
<path d="M83.4133 34.8278C30.748 91.5246 26.7633 178.375 56.9776 248.381C77.5095 295.954 131.876 352.849 190.62 329.932C214.246 320.714 234.482 292.483 243.253 268.839C268.372 201.123 255.278 107.097 206.647 52.5462C204.676 50.3349 193.79 41.7149 193.218 40.4175L193.824 41.2034L194.599 40.5277C269.789 78.1387 294.77 172.143 276.111 248.902C258.301 322.17 202.341 372.79 124.975 352.489C81.8921 341.183 50.3976 315.672 27.3255 278.058C1.56978 236.884 -6.4046 187.053 5.21861 139.913C16.0922 94.7467 41.1197 55.774 81.1551 31.3773L83.4133 34.8278Z" fill="#2F50E4"/>
<path d="M97.3612 22.0649C93.2415 26.075 86.745 31.1604 83.4133 34.8278L81.1551 31.3773C86.5643 27.9843 91.9271 25.2634 97.3612 22.0649Z" fill="#2F50E4"/>
</svg>
