<svg width="500" height="500" viewBox="0 0 500 500" fill="none" xmlns="http://www.w3.org/2000/svg">
<path d="M191.074 429.834C159.907 411.254 130.263 368.345 116.096 335.657C87.4004 268.94 87.6546 191.098 115.347 123.75C188.858 -55.029 386.93 -12.534 455.276 145.69C482.878 208.407 484.23 279.561 459.031 343.281C435.524 401.864 394.869 444.003 337.004 468.718C340.175 465.973 343.318 463.196 346.431 460.387C446.772 369.989 447.555 189.54 359.629 90.7073C337.067 65.3459 300.708 39.2987 265.378 38.841C171.182 37.621 134.394 151.433 131.89 228.691C129.94 300.518 148.992 375.569 197.57 428.479L214.204 442.257C205.453 438.747 198.952 435.059 191.074 429.834Z" fill="#2F50E4"/>
<path d="M157.235 36.9834L158.987 37.122C150.455 46.8919 139.554 53.7358 130.843 64.5719C49.9755 163.226 57.1766 347.446 159.162 428.731C301.95 542.539 385.65 357.273 368.635 233.835C359.002 163.944 341.876 105.256 286.99 60.2163C314.711 72.189 334.791 90.6813 353.615 113.649C364.079 126.663 372.75 141.453 380.299 156.71C430.849 258.838 406.523 425.112 297.551 480.376C260.405 499.214 210.803 495.127 172.443 481.455C116.189 461.404 71.5696 416.293 46.5174 362.493C18.2107 301.473 15.4961 231.663 38.9791 168.63C60.6753 109.586 99.983 63.488 157.235 36.9834Z" fill="#2F50E4"/>
</svg>
