<svg width="500" height="500" viewBox="0 0 500 500" fill="none" xmlns="http://www.w3.org/2000/svg">
<rect width="500" height="500" rx="250" fill="#2F50E4"/>
<path d="M204.852 387.873C180.964 373.632 158.244 340.745 147.386 315.691C125.392 264.556 125.587 204.894 146.811 153.275C203.154 16.2498 354.966 48.8201 407.35 170.091C428.505 218.16 429.541 272.696 410.228 321.534C392.211 366.435 361.051 398.733 316.7 417.675C319.131 415.571 321.539 413.443 323.926 411.29C400.832 342.005 401.432 203.7 334.041 127.949C316.749 108.511 288.881 88.5472 261.803 88.1964C189.606 87.2614 161.41 174.493 159.491 233.707C157.996 288.758 172.599 346.281 209.831 386.834L222.58 397.394C215.873 394.704 210.891 391.877 204.852 387.873Z" fill="white"/>
<path d="M178.916 86.7725L180.259 86.8787C173.72 94.3669 165.365 99.6123 158.688 107.918C96.7074 183.531 102.227 324.726 180.393 387.027C289.833 474.255 353.985 332.259 340.944 237.649C333.561 184.081 320.434 139.1 278.367 104.579C299.614 113.756 315.004 127.929 329.431 145.533C337.452 155.507 344.097 166.843 349.883 178.537C388.628 256.813 369.983 384.254 286.461 426.61C257.991 441.049 219.973 437.916 190.573 427.437C147.457 412.069 113.258 377.494 94.057 336.259C72.3613 289.49 70.2807 235.985 88.2792 187.673C104.908 142.419 135.036 107.087 178.916 86.7725Z" fill="white"/>
</svg>
