<svg width="1149" height="340" viewBox="0 0 1149 340" fill="none" xmlns="http://www.w3.org/2000/svg">
<path d="M116.236 293.376C94.664 280.516 74.1462 250.817 64.3409 228.192C44.4793 182.015 44.6552 128.137 63.822 81.5235C114.702 -42.2168 251.796 -12.8043 299.101 96.7087C318.205 140.117 319.141 189.366 301.7 233.469C285.43 274.017 257.291 303.183 217.24 320.289C219.435 318.389 221.61 316.467 223.765 314.523C293.215 251.955 293.757 127.059 232.9 58.6531C217.284 41.0995 192.118 23.0712 167.665 22.7544C102.468 21.91 77.0053 100.684 75.2725 154.157C73.9226 203.871 87.1093 255.818 120.732 292.439L132.245 301.974C126.188 299.545 121.689 296.992 116.236 293.376Z" fill="#2F50E4"/>
<path d="M92.8144 21.4688L94.0274 21.5646C88.1223 28.3268 80.5769 33.0637 74.5476 40.5638C18.5761 108.846 23.5602 236.352 94.1483 292.613C192.978 371.384 250.91 243.154 239.133 157.717C232.466 109.343 220.612 68.7229 182.623 37.5492C201.81 45.836 215.708 58.6352 228.737 74.5322C235.98 83.5394 241.981 93.7765 247.206 104.336C282.194 175.023 265.357 290.108 189.933 328.358C164.223 341.397 129.891 338.568 103.341 329.105C64.4052 315.227 33.5222 284.004 16.1826 246.767C-3.40962 204.532 -5.2885 156.214 10.965 112.586C25.9818 71.7201 53.1883 39.8137 92.8144 21.4688Z" fill="#2F50E4"/>
<path d="M483.282 204.043C454.523 204.043 430.758 194.507 412.14 175.283C393.522 156.211 384.137 132.144 384.137 102.93C384.137 73.5645 393.673 49.043 412.594 29.3652C431.515 9.83887 455.431 0 484.645 0C513.404 0 537.018 9.53613 555.636 28.6084C574.254 47.832 583.487 72.0508 583.487 101.416C583.487 130.63 574.103 155 555.333 174.526C536.412 194.204 512.496 204.043 483.282 204.043ZM488.58 192.236C505.382 192.236 518.854 184.971 528.995 170.591C539.137 156.211 544.132 136.23 544.132 110.649C544.132 81.2842 538.077 57.5195 525.968 39.2041C513.859 20.8887 498.268 11.8066 479.347 11.8066C462.394 11.8066 448.922 19.0723 438.932 33.4521C428.79 47.9834 423.795 67.9639 423.795 93.5449C423.795 122.759 429.85 146.372 441.959 164.688C454.068 183.003 469.659 192.236 488.58 192.236Z" fill="#2F50E4"/>
<path d="M684.601 200.259H606.193V192.842C610.885 192.085 614.215 191.328 616.183 190.874C617.999 190.42 620.118 189.663 622.54 188.604C627.233 186.333 628.141 182.397 628.141 175.737V102.93C628.141 96.7236 626.778 92.1826 624.054 89.3066C621.178 86.4307 615.275 84.4629 606.193 83.7061V76.8945C626.324 73.7158 643.58 67.8125 658.263 58.8818L664.469 64.7852L656.446 102.021H664.469C677.184 73.1104 689.596 58.8818 708.214 58.8818C712.755 58.8818 716.993 59.6387 720.929 61.3037V93.5449C714.117 90.6689 707.306 89.1553 700.797 89.3066C688.385 89.3066 678.849 93.3936 672.037 101.719C665.226 110.044 661.744 120.337 661.744 132.749V175.737C661.744 182.397 662.652 186.03 667.648 188.452C670.069 189.663 672.34 190.42 674.308 190.874C676.276 191.328 679.606 192.085 684.601 192.842V200.259Z" fill="#2F50E4"/>
<path d="M790.406 75.9863V164.99C790.406 175.283 796.007 180.732 804.635 180.884C813.263 181.035 821.285 179.521 830.367 176.04V184.214C815.533 192.539 799.943 198.896 783.595 203.286C776.178 203.286 769.82 200.713 764.825 195.566C759.83 190.42 757.257 184.365 757.257 177.554V75.9863H732.735V67.9639C751.354 60.8496 767.399 49.9512 781.022 35.2686H790.406V65.0879L830.065 61.001C829.005 65.3906 828.551 70.3857 828.551 75.9863H790.406Z" fill="#2F50E4"/>
<path d="M931.026 181.943C947.526 181.943 959.635 176.646 967.052 166.201L972.652 169.834C965.235 190.874 944.195 202.983 916.495 202.983C895.607 202.983 878.199 196.626 864.425 183.76C850.651 170.894 843.688 153.94 843.688 132.598C843.688 111.406 850.499 94.1504 864.122 80.8301C877.745 67.6611 894.698 61.001 914.982 61.001C926.031 61.001 935.87 63.1201 944.65 67.3584C953.277 71.5967 959.786 76.8945 964.025 83.4033C968.263 89.9121 971.29 97.0264 972.955 104.595C974.62 112.163 973.863 119.429 970.685 126.24H878.351C879.41 143.042 884.557 156.514 894.093 166.655C903.629 176.797 915.89 181.943 931.026 181.943ZM911.803 71.8994C902.721 71.8994 895.001 75.6836 888.795 83.1006C882.438 90.5176 878.805 101.265 878.048 115.342H939.352C941.168 104.292 939.654 94.3018 934.811 85.3711C929.967 76.4404 922.247 71.8994 911.803 71.8994Z" fill="#2F50E4"/>
<path d="M1072.71 123.667L1112.97 179.219C1116.45 184.214 1120.08 187.393 1123.57 189.058C1127.05 190.723 1132.65 192.085 1140.22 192.842V200.259H1063.32V192.842C1069.98 192.085 1072.4 191.479 1076.04 189.36C1079.52 187.241 1078.91 184.062 1075.13 179.219L1049.7 143.799L1021.24 179.219C1017.61 184.214 1016.25 187.241 1020.18 189.36C1022.15 190.42 1023.66 191.177 1024.72 191.328C1025.78 191.479 1028.2 191.934 1032.14 192.539C1032.75 192.69 1033.2 192.842 1033.65 192.842V200.259H980.978V192.842C988.697 192.085 994.147 190.874 997.325 189.36C1000.5 187.998 1004.14 184.517 1008.53 179.219L1043.8 135.776L1007.62 85.5225C1004.14 80.376 1000.66 76.8945 997.174 75.0781C993.693 73.4131 988.697 72.0508 981.886 71.2939V63.877H1055.9V71.2939C1049.7 72.0508 1046.82 72.8076 1043.95 74.9268C1040.92 77.0459 1041.37 80.6787 1045.16 85.5225L1066.8 115.645L1091.32 85.5225C1095.41 80.0732 1096.32 76.7432 1092.38 74.624C1088.45 72.5049 1086.33 72.5049 1079.21 71.2939V63.877H1130.07V71.2939C1123.41 72.0508 1118.57 73.2617 1115.54 74.9268C1112.36 76.5918 1108.73 80.2246 1104.34 85.5225L1072.71 123.667Z" fill="#2F50E4"/>
<path d="M394.537 338.043V244.443H406.107V338.043H394.537ZM429.51 338.043V244.443H441.21L490.025 317.568V244.443H501.725V338.043H490.025L441.21 264.853V338.043H429.51ZM523.801 338.043V244.443H552.661C553.614 244.443 555.282 244.465 557.666 244.508C560.049 244.551 562.324 244.725 564.491 245.028C571.727 245.981 577.772 248.625 582.626 252.958C587.522 257.248 591.206 262.708 593.676 269.338C596.146 275.968 597.381 283.27 597.381 291.243C597.381 299.216 596.146 306.518 593.676 313.148C591.206 319.778 587.522 325.26 582.626 329.593C577.772 333.883 571.727 336.505 564.491 337.458C562.324 337.718 560.027 337.891 557.601 337.978C555.217 338.021 553.571 338.043 552.661 338.043H523.801ZM535.696 326.993H552.661C554.307 326.993 556.149 326.95 558.186 326.863C560.222 326.733 561.999 326.538 563.516 326.278C568.629 325.325 572.767 323.18 575.931 319.843C579.094 316.506 581.412 312.346 582.886 307.363C584.359 302.38 585.096 297.006 585.096 291.243C585.096 285.35 584.337 279.911 582.821 274.928C581.347 269.945 579.029 265.806 575.866 262.513C572.702 259.22 568.586 257.118 563.516 256.208C561.999 255.905 560.201 255.71 558.121 255.623C556.041 255.536 554.221 255.493 552.661 255.493H535.696V326.993ZM653.107 339.993C645.87 339.993 639.479 338.498 633.932 335.508C628.385 332.518 624.03 328.336 620.867 322.963C617.747 317.546 616.187 311.198 616.187 303.918V244.508L627.887 244.443V302.943C627.887 307.363 628.624 311.22 630.097 314.513C631.614 317.763 633.607 320.471 636.077 322.638C638.547 324.805 641.255 326.43 644.202 327.513C647.192 328.553 650.16 329.073 653.107 329.073C656.097 329.073 659.087 328.531 662.077 327.448C665.067 326.365 667.775 324.761 670.202 322.638C672.672 320.471 674.644 317.741 676.117 314.448C677.59 311.155 678.327 307.32 678.327 302.943V244.443H690.027V303.918C690.027 311.155 688.445 317.481 685.282 322.898C682.162 328.315 677.829 332.518 672.282 335.508C666.735 338.498 660.344 339.993 653.107 339.993ZM741.407 339.993C734.777 339.993 728.797 338.866 723.467 336.613C718.181 334.36 713.804 331.153 710.337 326.993C706.914 322.79 704.682 317.828 703.642 312.108L715.602 310.223C717.119 316.116 720.261 320.731 725.027 324.068C729.837 327.361 735.492 329.008 741.992 329.008C746.196 329.008 749.987 328.358 753.367 327.058C756.791 325.715 759.499 323.808 761.492 321.338C763.486 318.868 764.482 315.943 764.482 312.563C764.482 310.483 764.114 308.706 763.377 307.233C762.684 305.716 761.709 304.438 760.452 303.398C759.239 302.315 757.852 301.405 756.292 300.668C754.732 299.931 753.107 299.325 751.417 298.848L727.562 291.763C724.962 290.983 722.449 290.008 720.022 288.838C717.596 287.625 715.429 286.13 713.522 284.353C711.616 282.533 710.099 280.366 708.972 277.853C707.846 275.296 707.282 272.285 707.282 268.818C707.282 263.271 708.712 258.548 711.572 254.648C714.476 250.705 718.397 247.693 723.337 245.613C728.277 243.533 733.846 242.515 740.042 242.558C746.326 242.601 751.937 243.728 756.877 245.938C761.861 248.105 765.977 251.225 769.227 255.298C772.521 259.371 774.731 264.246 775.857 269.923L763.572 272.068C762.922 268.255 761.471 264.983 759.217 262.253C757.007 259.48 754.234 257.356 750.897 255.883C747.561 254.366 743.899 253.586 739.912 253.543C736.099 253.5 732.654 254.106 729.577 255.363C726.501 256.62 724.052 258.375 722.232 260.628C720.412 262.838 719.502 265.395 719.502 268.298C719.502 271.158 720.326 273.476 721.972 275.253C723.619 276.986 725.634 278.373 728.017 279.413C730.444 280.41 732.806 281.233 735.102 281.883L752.912 287.018C754.949 287.581 757.289 288.361 759.932 289.358C762.619 290.355 765.219 291.763 767.732 293.583C770.246 295.36 772.326 297.743 773.972 300.733C775.619 303.68 776.442 307.406 776.442 311.913C776.442 316.42 775.532 320.428 773.712 323.938C771.936 327.448 769.444 330.395 766.237 332.778C763.031 335.118 759.304 336.895 755.057 338.108C750.811 339.365 746.261 339.993 741.407 339.993ZM818.092 338.043V255.428H786.177V244.443H861.577V255.428H829.662V338.043H818.092ZM875.826 338.043V244.443H912.811C913.721 244.443 914.805 244.486 916.061 244.573C917.318 244.616 918.531 244.746 919.701 244.963C924.771 245.743 929.018 247.476 932.441 250.163C935.908 252.85 938.508 256.251 940.241 260.368C941.975 264.441 942.841 268.97 942.841 273.953C942.841 281.19 940.956 287.473 937.186 292.803C933.416 298.09 927.891 301.405 920.611 302.748L916.191 303.463H887.396V338.043H875.826ZM931.531 338.043L913.071 299.953L924.511 296.443L944.791 338.043H931.531ZM887.396 292.478H912.421C913.245 292.478 914.176 292.435 915.216 292.348C916.3 292.261 917.318 292.11 918.271 291.893C921.261 291.2 923.688 289.943 925.551 288.123C927.458 286.26 928.845 284.093 929.711 281.623C930.578 279.11 931.011 276.553 931.011 273.953C931.011 271.353 930.578 268.818 929.711 266.348C928.845 263.835 927.458 261.646 925.551 259.783C923.688 257.92 921.261 256.663 918.271 256.013C917.318 255.753 916.3 255.601 915.216 255.558C914.176 255.471 913.245 255.428 912.421 255.428H887.396V292.478ZM964.308 338.043V244.443H975.878V338.043H964.308ZM999.281 338.043V244.443H1058.43V255.428H1010.85V284.743H1050.63V295.728H1010.85V327.058H1050.63V338.043H999.281ZM1108.5 339.993C1101.87 339.993 1095.89 338.866 1090.56 336.613C1085.28 334.36 1080.9 331.153 1077.43 326.993C1074.01 322.79 1071.78 317.828 1070.74 312.108L1082.7 310.223C1084.22 316.116 1087.36 320.731 1092.12 324.068C1096.93 327.361 1102.59 329.008 1109.09 329.008C1113.29 329.008 1117.08 328.358 1120.46 327.058C1123.89 325.715 1126.6 323.808 1128.59 321.338C1130.58 318.868 1131.58 315.943 1131.58 312.563C1131.58 310.483 1131.21 308.706 1130.47 307.233C1129.78 305.716 1128.81 304.438 1127.55 303.398C1126.34 302.315 1124.95 301.405 1123.39 300.668C1121.83 299.931 1120.2 299.325 1118.51 298.848L1094.66 291.763C1092.06 290.983 1089.55 290.008 1087.12 288.838C1084.69 287.625 1082.53 286.13 1080.62 284.353C1078.71 282.533 1077.2 280.366 1076.07 277.853C1074.94 275.296 1074.38 272.285 1074.38 268.818C1074.38 263.271 1075.81 258.548 1078.67 254.648C1081.57 250.705 1085.49 247.693 1090.43 245.613C1095.37 243.533 1100.94 242.515 1107.14 242.558C1113.42 242.601 1119.03 243.728 1123.97 245.938C1128.96 248.105 1133.07 251.225 1136.32 255.298C1139.62 259.371 1141.83 264.246 1142.95 269.923L1130.67 272.068C1130.02 268.255 1128.57 264.983 1126.31 262.253C1124.1 259.48 1121.33 257.356 1117.99 255.883C1114.66 254.366 1111 253.586 1107.01 253.543C1103.2 253.5 1099.75 254.106 1096.67 255.363C1093.6 256.62 1091.15 258.375 1089.33 260.628C1087.51 262.838 1086.6 265.395 1086.6 268.298C1086.6 271.158 1087.42 273.476 1089.07 275.253C1090.72 276.986 1092.73 278.373 1095.11 279.413C1097.54 280.41 1099.9 281.233 1102.2 281.883L1120.01 287.018C1122.05 287.581 1124.39 288.361 1127.03 289.358C1129.72 290.355 1132.32 291.763 1134.83 293.583C1137.34 295.36 1139.42 297.743 1141.07 300.733C1142.72 303.68 1143.54 307.406 1143.54 311.913C1143.54 316.42 1142.63 320.428 1140.81 323.938C1139.03 327.448 1136.54 330.395 1133.33 332.778C1130.13 335.118 1126.4 336.895 1122.15 338.108C1117.91 339.365 1113.36 339.993 1108.5 339.993Z" fill="#010101"/>
</svg>
