<svg width="852" height="230" viewBox="0 0 852 230" fill="none" xmlns="http://www.w3.org/2000/svg">
<path d="M111.246 230C78.998 230 52.552 219.08 31.565 197.411C10.578 175.742 0 148.613 0 116.024C0 83.435 10.578 55.794 31.906 33.4421C53.064 11.0905 80.022 0 112.611 0C144.859 0 171.305 10.9199 192.292 32.589C213.279 54.429 223.687 81.558 223.687 114.147C223.687 146.736 213.108 174.206 191.951 196.558C170.794 218.909 143.835 230 111.246 230ZM117.047 217.374C136.669 217.374 152.537 209.013 164.992 192.463C177.448 175.912 183.59 153.39 183.59 124.726C183.59 91.795 176.254 65.007 161.751 44.0208C147.248 23.0341 128.82 12.6261 106.639 12.6261C87.018 12.6261 71.15 20.9866 58.865 37.5371C46.409 54.258 40.267 76.951 40.267 105.445C40.267 138.034 47.604 164.822 62.107 185.809C76.61 206.795 94.866 217.374 117.047 217.374Z" fill="#2F50E4"/>
<path d="M337.322 225.734H253.375V218.056C258.665 217.374 262.418 216.862 264.636 216.35C266.684 215.838 269.073 214.985 271.802 213.62C277.092 211.061 278.286 206.625 278.286 199.117V115.341C278.286 108.346 276.751 103.227 273.509 99.9851C270.267 96.7431 263.613 94.5251 253.375 93.6721V86.6771C274.532 83.4351 292.619 76.6101 307.633 66.3721L314.629 73.0271L304.733 115H313.093C328.108 82.9231 342.44 66.3721 363.768 66.3721C368.887 66.3721 373.665 67.2261 378.101 69.1021V102.374C370.423 99.3031 362.915 97.7671 355.749 97.7671C341.758 97.7671 330.838 102.374 323.16 111.588C315.311 120.801 311.387 132.574 311.387 146.736V199.117C311.387 206.113 313.093 210.549 316.676 212.767C320.259 214.985 327.084 216.691 337.322 218.056V225.734Z" fill="#2F50E4"/>
<path d="M455.393 85.3125V186.662C455.393 198.264 462.218 204.407 471.943 204.577C481.669 204.748 490.883 203.042 500.608 199.117V207.648C485.423 216.35 468.702 223.516 450.274 229.147C442.596 229.147 435.942 226.246 430.482 220.274C425.022 214.303 422.292 207.648 422.292 200.141V85.3125H395.675V76.9515C415.638 69.2735 432.359 56.9885 445.667 40.2676H455.393V73.3685L499.414 68.7615C498.219 73.3685 497.708 78.9995 497.708 85.3125H455.393Z" fill="#2F50E4"/>
<path d="M615.438 206.455C634.718 206.455 648.712 200.142 657.072 187.686L663.042 191.44C654.682 215.157 630.964 228.807 600.764 228.807C577.73 228.807 558.449 221.64 542.923 207.138C527.396 192.635 519.718 173.525 519.718 149.808C519.718 126.092 527.225 106.64 542.24 91.4547C557.255 76.2697 576.024 68.7617 598.716 68.7617C622.774 68.7617 640.522 76.7807 652.292 92.8197C663.892 109.029 666.622 124.897 660.482 140.765H554.013C554.866 160.046 560.838 175.913 571.929 188.028C583.019 200.313 597.522 206.455 615.438 206.455ZM595.133 80.3647C584.213 80.3647 575 84.6297 567.322 93.1607C559.644 101.692 555.208 113.807 554.354 129.333H629.087C630.964 117.219 628.917 106.129 622.945 95.7207C616.973 85.4827 607.759 80.3647 595.133 80.3647Z" fill="#2F50E4"/>
<path d="M776.502 140.082L821.212 202.7C825.132 208.331 829.232 211.914 833.152 213.791C837.082 215.668 843.222 217.203 851.922 218.056V225.734H768.832V218.056C776.332 217.203 778.892 216.521 782.992 214.132C786.912 211.743 786.572 208.16 782.482 202.7L753.132 161.41L720.542 202.7C716.442 208.331 714.912 211.743 719.352 214.132C721.562 215.326 723.272 216.18 724.462 216.35C725.662 216.521 728.392 217.033 732.822 217.715C733.512 217.886 734.022 218.056 734.532 218.056V225.734H675.842V218.056C684.542 217.203 690.682 215.838 694.262 214.132C697.852 212.596 701.942 208.672 706.552 202.7L746.822 152.366L706.212 95.7199C702.282 89.9179 698.362 85.9939 694.602 83.9469C690.682 82.0699 684.882 80.5339 677.202 79.6809V72.0029H757.222V79.6809C750.232 80.5339 746.992 81.3869 743.742 83.7759C740.332 86.1649 740.502 90.2599 744.602 95.7199L770.192 131.38L798.512 95.7199C803.122 89.5769 803.802 85.8229 799.372 83.4349C794.932 81.0459 792.542 81.0459 784.522 79.6809V72.0029H841.512V79.6809C834.002 80.5339 828.542 81.8989 825.132 83.7759C821.552 85.6529 817.452 89.7479 812.512 95.7199L776.502 140.082Z" fill="#2F50E4"/>
</svg>
