<svg viewBox="0 0 320 340" fill="none" xmlns="http://www.w3.org/2000/svg">
<path d="M116.236 293.376C94.664 280.516 74.1462 250.817 64.3409 228.192C44.4793 182.015 44.6552 128.137 63.822 81.5235C114.702 -42.2168 251.796 -12.8043 299.101 96.7087C318.205 140.117 319.141 189.366 301.7 233.469C285.43 274.017 257.291 303.183 217.24 320.289C219.435 318.389 221.61 316.467 223.765 314.523C293.215 251.955 293.757 127.059 232.9 58.6531C217.284 41.0995 192.118 23.0712 167.665 22.7544C102.468 21.91 77.0053 100.684 75.2725 154.157C73.9226 203.871 87.1093 255.818 120.732 292.439L132.245 301.974C126.188 299.545 121.689 296.992 116.236 293.376Z" fill="#FFFFFF"/>
<path d="M92.8144 21.4688L94.0274 21.5646C88.1223 28.3268 80.5769 33.0637 74.5476 40.5638C18.5761 108.846 23.5602 236.352 94.1483 292.613C192.978 371.384 250.91 243.154 239.133 157.717C232.466 109.343 220.612 68.7229 182.623 37.5492C201.81 45.836 215.708 58.6352 228.737 74.5322C235.98 83.5394 241.981 93.7765 247.206 104.336C282.194 175.023 265.357 290.108 189.933 328.358C164.223 341.397 129.891 338.568 103.341 329.105C64.4052 315.227 33.5222 284.004 16.1826 246.767C-3.40962 204.532 -5.2885 156.214 10.965 112.586C25.9818 71.7201 53.1883 39.8137 92.8144 21.4688Z" fill="#FFFFFF"/>
</svg>
