<svg width="418" height="100" viewBox="0 0 418 100" fill="none" xmlns="http://www.w3.org/2000/svg">
<path d="M23.9966 0.469051H35.7614L41.5265 18.1541L47.2908 0.469051H59.1332L49.7064 26.1788L55.3156 40.9037L69.1839 0.390625H83.1298L61.5487 55.7062H50.4854L41.5265 34.0476L32.6444 55.7062H21.5027L0 0.390625H13.8675L27.8133 40.9037L33.2674 26.1788L23.9966 0.469051Z" fill="white"/>
<path d="M126.835 44.4878V55.7071H87.957V0.390625H126.133V11.6099H100.734V22.3612H122.549V32.723H100.734V44.4869L126.835 44.4878Z" fill="white"/>
<path d="M180.354 41.5268C180.354 44.6952 179.509 47.3312 177.822 49.4347C176.133 51.5383 173.861 53.1103 171.006 54.1481C168.148 55.1877 165.006 55.7062 161.579 55.7062H134.621V0.390625H165.395C167.992 0.390625 170.238 1.0799 172.134 2.45584C174.029 3.83265 175.485 5.61118 176.497 7.79229C177.51 9.97341 178.017 12.2329 178.017 14.57C178.017 17.1677 177.341 19.6477 175.991 22.01C174.639 24.3742 172.666 26.1527 170.07 27.3474C173.237 28.2824 175.743 29.945 177.588 32.3335C179.431 34.7238 180.354 37.7876 180.354 41.5268ZM147.398 11.2979V22.7507H159.942C160.877 22.7507 161.746 22.5442 162.552 22.1277C163.357 21.7129 164.019 21.0759 164.539 20.2193C165.057 19.3619 165.318 18.2848 165.318 16.9864C165.318 15.7395 165.097 14.7016 164.656 13.8694C164.214 13.039 163.629 12.4029 162.902 11.9611C162.174 11.521 161.344 11.2988 160.409 11.2988L147.398 11.2979ZM167.342 38.9562C167.342 37.7623 167.109 36.7106 166.641 35.8008C166.174 34.8928 165.564 34.1643 164.81 33.6197C164.057 33.0742 163.16 32.8015 162.122 32.8015H147.397V44.8773H161.577C162.668 44.8773 163.641 44.6185 164.498 44.0983C165.354 43.5798 166.043 42.8792 166.562 41.9947C167.082 41.112 167.342 40.0994 167.342 38.9562Z" fill="white"/>
<path d="M212.146 56.0955C207.99 56.0955 204.239 55.3042 200.889 53.7183C197.538 52.135 194.657 50.0053 192.241 47.3301C189.825 44.6557 187.969 41.6424 186.669 38.2928C185.371 34.9423 184.723 31.4758 184.723 27.8918C184.723 24.2049 185.41 20.6992 186.787 17.374C188.162 14.0504 190.085 11.0764 192.552 8.45345C195.018 5.83141 197.94 3.76706 201.317 2.25954C204.693 0.753763 208.379 0 212.38 0C216.483 0 220.21 0.792103 223.56 2.37631C226.911 3.96138 229.792 6.10415 232.208 8.80375C234.623 11.5051 236.479 14.5297 237.779 17.8802C239.076 21.2308 239.726 24.6467 239.726 28.1253C239.726 31.8139 239.051 35.3196 237.701 38.6431C236.35 41.9675 234.429 44.9416 231.936 47.5636C229.443 50.1865 226.521 52.2648 223.171 53.7959C219.82 55.3304 216.145 56.0955 212.146 56.0955ZM197.734 28.0486C197.734 30.1783 198.045 32.2435 198.669 34.2425C199.292 36.2424 200.213 38.0209 201.434 39.579C202.654 41.137 204.173 42.384 205.992 43.319C207.81 44.254 209.887 44.7211 212.224 44.7211C214.665 44.7211 216.794 44.2418 218.612 43.2798C220.43 42.3187 221.937 41.0333 223.131 39.423C224.326 37.8135 225.222 36.008 225.82 34.0081C226.417 32.0091 226.715 29.97 226.715 27.8918C226.715 25.7629 226.404 23.7117 225.78 21.7371C225.157 19.7633 224.222 17.9848 222.975 16.3997C221.728 14.8164 220.196 13.5834 218.38 12.6998C216.56 11.8171 214.51 11.3753 212.224 11.3753C209.781 11.3753 207.667 11.8432 205.874 12.7773C204.083 13.7123 202.576 14.9724 201.355 16.5557C200.135 18.1408 199.225 19.9324 198.628 21.9314C198.032 23.933 197.734 25.9721 197.734 28.0486Z" fill="white"/>
<path d="M247.129 55.7062V0.390625H272.059C274.656 0.390625 277.057 0.923922 279.266 1.9879C281.473 3.05275 283.383 4.48097 284.992 6.27257C286.602 8.06417 287.862 10.078 288.77 12.3105C289.679 14.5439 290.134 16.8034 290.134 19.0891C290.134 21.3748 289.77 23.5428 289.043 25.5941C288.315 27.6463 287.277 29.4893 285.927 31.1258C284.576 32.7614 282.967 34.0998 281.097 35.1377L293.25 55.7062H279.148L268.553 37.8652H259.904V55.7062H247.129ZM259.905 26.7243H271.592C272.63 26.7243 273.551 26.4002 274.358 25.7501C275.163 25.1009 275.825 24.2051 276.344 23.0627C276.863 21.9203 277.123 20.5958 277.123 19.0891C277.123 17.5825 276.824 16.2719 276.228 15.1547C275.63 14.0385 274.89 13.168 274.007 12.5449C273.124 11.9219 272.189 11.6099 271.202 11.6099H259.905V26.7243Z" fill="white"/>
<path d="M299.332 55.7062V0.390625H312.109V55.7062H299.332Z" fill="white"/>
<path d="M364.844 11.6099H348.015V55.7062H335.238V11.6099H318.332V0.390625H364.844V11.6099Z" fill="white"/>
<path d="M379.645 0.390625L391.566 24.8543L403.641 0.390625H417.587L397.876 36.8526V55.7062H385.177V36.6966L365.777 0.390625H379.645Z" fill="white"/>
<path d="M65.2272 75.7891H55.8841V99.8127H52.4525V75.7891H43.1094V72.7383H65.2272V75.7891Z" fill="white"/>
<path d="M90.9438 96.7619V99.8127H72.5625V72.7383H90.5996V75.7891H75.9949V84.5588H88.693V87.4188H75.9958V96.7619H90.9438Z" fill="white"/>
<path d="M96.7695 86.0418C96.7695 84.3897 97.0554 82.7688 97.627 81.1803C98.1986 79.5917 99.0378 78.1426 100.144 76.8329C101.251 75.524 102.604 74.4818 104.205 73.7063C105.807 72.9307 107.625 72.543 109.658 72.543C112.073 72.543 114.145 73.0963 115.874 74.2013C117.603 75.3079 118.887 76.7239 119.726 78.4537L117.019 80.2078C116.486 79.0645 115.804 78.1557 114.979 77.4812C114.152 76.8085 113.263 76.3318 112.31 76.0504C111.356 75.7715 110.422 75.6321 109.507 75.6321C108.006 75.6321 106.679 75.9371 105.522 76.5471C104.365 77.157 103.393 77.9709 102.604 78.9878C101.817 80.0048 101.226 81.1428 100.831 82.4011C100.437 83.6585 100.24 84.9247 100.24 86.1952C100.24 87.5938 100.475 88.941 100.946 90.2376C101.417 91.5343 102.071 92.6784 102.91 93.6701C103.749 94.6617 104.741 95.4503 105.884 96.035C107.028 96.6198 108.274 96.9117 109.622 96.9117C110.561 96.9117 111.528 96.747 112.52 96.4167C113.511 96.0864 114.438 95.5714 115.302 94.8726C116.167 94.1737 116.853 93.2649 117.362 92.146L120.222 93.7093C119.662 95.0573 118.798 96.2006 117.628 97.1408C116.459 98.082 115.155 98.793 113.72 99.2766C112.283 99.7594 110.866 100.001 109.468 100.001C107.612 100.001 105.909 99.6008 104.359 98.7991C102.807 97.9983 101.466 96.9308 100.335 95.5958C99.2034 94.2617 98.3267 92.7621 97.7037 91.0968C97.0806 89.429 96.7695 87.7454 96.7695 86.0418Z" fill="white"/>
<path d="M149.732 72.7383V99.8127H146.299V87.4954H131.389V99.8127H127.957V72.7383H131.389V84.4455H146.299V72.7383H149.732Z" fill="white"/>
<path d="M163.076 79.0681V99.8127H159.645V72.7383H162.542L179.092 93.902V72.7766H182.523V99.8127H179.397L163.076 79.0681Z" fill="white"/>
<path d="M203.411 99.9982C201.505 99.9982 199.776 99.6165 198.226 98.8549C196.675 98.0915 195.334 97.0572 194.202 95.7475C193.071 94.4378 192.201 92.9633 191.591 91.3234C190.981 89.6843 190.676 88.0007 190.676 86.271C190.676 84.4663 190.999 82.7436 191.647 81.1036C192.296 79.4636 193.198 78.0023 194.355 76.7187C195.511 75.4343 196.865 74.4173 198.416 73.6679C199.966 72.9185 201.658 72.543 203.487 72.543C205.395 72.543 207.123 72.9368 208.674 73.7246C210.224 74.5123 211.559 75.5676 212.678 76.8895C213.796 78.2123 214.66 79.6867 215.271 81.3127C215.881 82.9405 216.187 84.6058 216.187 86.3085C216.187 88.1131 215.869 89.8359 215.233 91.4759C214.597 93.1158 213.701 94.5781 212.544 95.8608C211.387 97.1452 210.033 98.1552 208.484 98.8924C206.933 99.6296 205.243 99.9982 203.411 99.9982ZM194.146 86.2701C194.146 87.6426 194.367 88.9715 194.813 90.255C195.258 91.5395 195.887 92.6758 196.701 93.6674C197.515 94.6591 198.493 95.4477 199.636 96.0324C200.78 96.6171 202.051 96.9091 203.451 96.9091C204.899 96.9091 206.195 96.6041 207.34 95.9941C208.484 95.3841 209.456 94.5702 210.257 93.5533C211.058 92.5364 211.668 91.3922 212.088 90.1209C212.507 88.8495 212.718 87.5659 212.718 86.2693C212.718 84.8968 212.495 83.5749 212.049 82.3035C211.604 81.0321 210.969 79.8941 210.143 78.8903C209.317 77.8864 208.337 77.0978 207.206 76.5261C206.075 75.9536 204.823 75.6678 203.451 75.6678C202 75.6678 200.705 75.9676 199.56 76.5636C198.416 77.1623 197.444 77.9683 196.642 78.9852C195.842 80.0022 195.225 81.1402 194.794 82.3985C194.361 83.6577 194.146 84.9491 194.146 86.2701Z" fill="white"/>
<path d="M260.232 99.9982C258.325 99.9982 256.596 99.6165 255.046 98.8549C253.496 98.0915 252.155 97.0572 251.024 95.7475C249.892 94.4378 249.021 92.9633 248.411 91.3234C247.801 89.6843 247.496 88.0007 247.496 86.271C247.496 84.4663 247.82 82.7436 248.468 81.1036C249.116 79.4636 250.018 78.0023 251.175 76.7187C252.331 75.4343 253.686 74.4173 255.236 73.6679C256.786 72.9185 258.477 72.543 260.307 72.543C262.214 72.543 263.943 72.9368 265.494 73.7246C267.044 74.5123 268.378 75.5676 269.498 76.8895C270.616 78.2123 271.481 79.6867 272.091 81.3127C272.701 82.9405 273.007 84.6058 273.007 86.3085C273.007 88.1131 272.689 89.8359 272.053 91.4759C271.418 93.1158 270.521 94.5781 269.365 95.8608C268.208 97.1452 266.853 98.1552 265.304 98.8924C263.753 99.6296 262.063 99.9982 260.232 99.9982ZM250.965 86.2701C250.965 87.6426 251.188 88.9715 251.633 90.255C252.078 91.5395 252.707 92.6758 253.521 93.6674C254.335 94.6591 254.963 95.4477 256.107 96.0324C257.252 96.6171 258.521 96.9091 259.92 96.9091C261.369 96.9091 262.666 96.6041 263.81 95.9941C264.955 95.3841 265.927 94.5702 266.727 93.5533C267.528 92.5364 268.138 91.3922 268.558 90.1209C268.977 88.8495 269.188 87.5659 269.188 86.2693C269.188 84.8968 268.965 83.5749 268.52 82.3035C268.074 81.0321 267.439 79.8941 266.613 78.8903C265.787 77.8864 264.808 77.0978 263.677 76.5261C262.545 75.9536 261.294 75.6678 259.921 75.6678C258.473 75.6678 257.176 75.9676 256.032 76.5636C254.887 77.1623 253.915 77.9683 253.114 78.9852C252.313 80.0022 251.697 81.1402 251.264 82.3985C250.831 83.6577 250.615 84.9491 250.615 86.2701Z" fill="white"/>
<path d="M292.079 99.9999C290.3 99.9999 288.642 99.613 287.103 98.8366C285.564 98.061 284.224 97.0197 283.08 95.71C281.935 94.4003 281.046 92.9268 280.41 91.2868C279.775 89.6468 279.457 87.9502 279.457 86.1952C279.457 84.3644 279.774 82.6294 280.41 80.9903C281.046 79.3503 281.929 77.8951 283.06 76.6237C284.191 75.3524 285.526 74.3546 287.065 73.6296C288.603 72.9055 290.275 72.543 292.079 72.543C294.698 72.543 296.858 73.0902 298.562 74.1829C300.264 75.2766 301.549 76.6995 302.413 78.4537L299.782 80.2836C298.995 78.7073 297.913 77.5378 296.541 76.7754C295.168 76.0129 293.656 75.6321 292.003 75.6321C290.63 75.6321 289.384 75.924 288.266 76.5087C287.147 77.0943 286.188 77.8881 285.387 78.892C284.586 79.8958 283.976 81.0339 283.556 82.3053C283.136 83.5766 282.926 84.8986 282.926 86.271C282.926 87.7201 283.161 89.0865 283.633 90.3701C284.102 91.6545 284.77 92.7856 285.634 93.7642C286.498 94.7436 287.504 95.5131 288.647 96.0708C289.792 96.6311 291.024 96.9099 292.346 96.9099C293.896 96.9099 295.371 96.5169 296.769 95.7283C298.167 94.9414 299.489 93.7328 300.735 92.1059V95.6525C298.296 98.5508 295.41 99.9999 292.079 99.9999ZM300.317 88.9035H294.482V86.3102H303.214V99.8091H300.317V88.9035Z" fill="white"/>
<path d="M311.871 99.8127V72.7383H315.303V99.8127H311.871Z" fill="white"/>
<path d="M343.587 96.7619V99.8127H325.207V72.7383H343.244V75.7891H328.639V84.5588H341.337V87.4188H328.639V96.7619H343.587Z" fill="white"/>
<path d="M367.619 78.4162C367.314 78.0607 366.908 77.7165 366.399 77.3862C365.89 77.0559 365.319 76.7562 364.683 76.4904C364.048 76.2229 363.354 76.0076 362.605 75.8421C361.855 75.6774 361.072 75.5946 360.26 75.5946C358.175 75.5946 356.638 75.9876 355.646 76.7736C354.654 77.5587 354.159 78.6367 354.159 80.0048C354.159 80.9668 354.412 81.7275 354.921 82.2852C355.429 82.8429 356.211 83.2995 357.266 83.6533C358.32 84.0088 359.662 84.3757 361.289 84.7565C363.17 85.1626 364.797 85.6567 366.171 86.2388C367.543 86.8217 368.598 87.6007 369.336 88.5767C370.073 89.5527 370.442 90.8511 370.442 92.4736C370.442 93.7659 370.194 94.8883 369.698 95.8381C369.202 96.7879 368.51 97.5739 367.619 98.1952C366.729 98.8157 365.687 99.2714 364.493 99.5633C363.297 99.8544 362.001 99.9999 360.603 99.9999C359.23 99.9999 357.889 99.8535 356.579 99.5616C355.27 99.2697 354.031 98.8435 352.861 98.2841C351.692 97.7247 350.598 97.0258 349.582 96.1866L351.221 93.2884C351.628 93.7215 352.155 94.1458 352.804 94.5658C353.452 94.985 354.189 95.3736 355.015 95.7292C355.841 96.0856 356.738 96.3714 357.703 96.5866C358.669 96.8036 359.661 96.9108 360.678 96.9108C362.61 96.9108 364.11 96.564 365.177 95.8677C366.246 95.1723 366.779 94.1537 366.779 92.8135C366.779 91.7992 366.48 90.9879 365.883 90.3796C365.286 89.7714 364.403 89.2642 363.233 88.8582C362.064 88.453 360.64 88.0469 358.963 87.6417C357.132 87.186 355.594 86.684 354.349 86.1394C353.102 85.5948 352.168 84.8785 351.545 83.9905C350.922 83.1026 350.611 81.9497 350.611 80.5293C350.611 78.8066 351.03 77.3487 351.869 76.1567C352.709 74.9646 353.865 74.0653 355.339 73.4553C356.813 72.848 358.479 72.543 360.334 72.543C361.554 72.543 362.692 72.6702 363.747 72.9246C364.802 73.1791 365.787 73.5346 366.703 73.993C367.618 74.4496 368.457 74.9968 369.22 75.633L367.619 78.4162Z" fill="white"/>
</svg>
