<svg xmlns="http://www.w3.org/2000/svg" width="58" height="36" fill="none"><path fill="#fff" d="M20 18a2 2 0 1 1-4 0 2 2 0 0 1 4 0m22 0a2 2 0 1 1-4 0 2 2 0 0 1 4 0"/><path fill="#fff" fill-rule="evenodd" d="M40 0q1.014 0 2 .11v2.014A16 16 0 0 0 40 2a15.92 15.92 0 0 0-9.455 3.091q.723.703 1.364 1.483A13.94 13.94 0 0 1 40 4q1.02 0 2 .142v2.024Q41.023 6 40 6a11.94 11.94 0 0 0-6.908 2.186q.548.841 1.002 1.744A9.96 9.96 0 0 1 40 8q1.03.002 2 .2v2.052A8 8 0 0 0 40 10a7.96 7.96 0 0 0-5.087 1.825q.383 1.048.636 2.152A6 6 0 0 1 40 12c.701 0 1.374.12 2 .341v2.194A4 4 0 1 0 44 18V.446C52.016 2.265 58 9.434 58 18c0 9.941-8.059 18-18 18-4.142 0-7.958-1.4-11-3.751A17.93 17.93 0 0 1 18 36q-1.014 0-2-.11v-2.014q.983.123 2 .124a15.93 15.93 0 0 0 9.455-3.091 18 18 0 0 1-1.364-1.483A13.94 13.94 0 0 1 18.001 32q-1.02 0-2.001-.142v-2.024q.977.165 2 .166a11.94 11.94 0 0 0 6.908-2.186q-.548-.841-1.002-1.744A9.96 9.96 0 0 1 18 28q-1.03-.002-2-.2v-2.052A8 8 0 0 0 18 26a7.96 7.96 0 0 0 5.087-1.825 18 18 0 0 1-.636-2.152A6 6 0 0 1 18.001 24c-.702 0-1.375-.12-2.001-.341v-2.194A4 4 0 1 0 14 18v17.554C5.984 33.735 0 26.566 0 18 0 8.059 8.059 0 18 0c4.142 0 7.958 1.4 11 3.751A17.93 17.93 0 0 1 40 0m6 3.163v2.184c4.73 2.247 8 7.068 8 12.653 0 7.732-6.268 14-14 14s-14-6.268-14-14a8 8 0 1 0-14 5.292V18a6 6 0 1 1 12 0c0 8.837 7.163 16 16 16s16-7.163 16-16c0-6.715-4.136-12.463-10-14.837M12 26.001v2.394A12 12 0 0 1 6 18c0-6.627 5.373-12 12-12 6.628 0 12 5.373 12 12 0 5.523 4.477 10 10 10s10-4.477 10-10a9.99 9.99 0 0 0-4-8V7.604C49.587 9.68 52 13.558 52 18c0 6.627-5.373 12-12 12s-12-5.373-12-12c0-5.523-4.477-10-10-10S8 12.477 8 18a9.99 9.99 0 0 0 4 8ZM4 18c0 5.585 3.27 10.406 8 12.653v2.184C6.136 30.463 2 24.715 2 18 2 9.163 9.164 2 18 2s16 7.163 16 16a6 6 0 1 0 12 0v-5.292A8 8 0 1 1 32 18c0-7.732-6.268-14-14-14S4 10.268 4 18" clip-rule="evenodd"/></svg>