<svg xmlns="http://www.w3.org/2000/svg" width="43" height="41" fill="none"><path fill="#fff" fill-rule="evenodd" d="M23.329 8.97a10.58 10.58 0 0 0-7.464 3.083 10.53 10.53 0 0 0-3.019 6.209c-.09.753-.502 1.448-1.18 1.787l-2.008 1c-.678.339-1.123 1.034-1.034 1.788a10.5 10.5 0 0 0 3.018 6.208 10.56 10.56 0 0 0 7.464 3.083 10.58 10.58 0 0 0 7.464-3.083 10.53 10.53 0 0 0 3.02-6.209c.088-.753.5-1.448 1.18-1.787l2.007-1c.678-.339 1.124-1.034 1.034-1.787a10.5 10.5 0 0 0-3.018-6.209 10.56 10.56 0 0 0-7.464-3.083m4.876 8.512q.16.385.256.788c.177.738-.284 1.44-.962 1.779l-2.007 1c-.679.339-1.076 1.041-1.253 1.779a5.26 5.26 0 0 1-1.4 2.495 5.28 5.28 0 0 1-3.733 1.542 5.3 5.3 0 0 1-3.732-1.542 5.26 5.26 0 0 1-1.4-2.495c-.177-.738.284-1.44.962-1.779l2.007-1c.679-.339 1.076-1.041 1.253-1.779a5.26 5.26 0 0 1 3.113-3.636 5.29 5.29 0 0 1 5.752 1.14c.49.49.878 1.07 1.144 1.708" clip-rule="evenodd"/><path fill="#fff" fill-rule="evenodd" d="M23.329.55A19 19 0 0 0 9.894 6.1a18.94 18.94 0 0 0-5.525 12.16c-.05.756-.47 1.45-1.148 1.789l-2.007 1c-.679.339-1.117 1.033-1.067 1.79A18.94 18.94 0 0 0 5.671 35a19 19 0 0 0 6.164 4.107 19.045 19.045 0 0 0 20.706-4.108 19 19 0 0 0 4.12-6.147 18.9 18.9 0 0 0 1.405-6.014c.05-.756.47-1.45 1.148-1.789l2.007-1c.679-.339 1.117-1.033 1.067-1.79a18.9 18.9 0 0 0-1.406-6.013 19 19 0 0 0-4.118-6.147A19 19 0 0 0 30.6 1.99 19 19 0 0 0 23.329.55m9.444 22.288c.068-.756.485-1.45 1.163-1.789l2.007-1c.679-.339 1.12-1.033 1.052-1.788a13.66 13.66 0 0 0-3.963-8.44 13.755 13.755 0 0 0-19.406 0 13.68 13.68 0 0 0-3.963 8.44c-.07.755-.485 1.45-1.164 1.788l-2.007 1c-.679.339-1.12 1.033-1.052 1.789a13.65 13.65 0 0 0 3.963 8.44 13.755 13.755 0 0 0 19.406 0 13.68 13.68 0 0 0 3.964-8.44" clip-rule="evenodd"/><path fill="#BBB" d="M42.323 19.068h-5.28a.72.72 0 0 1-.402.633l-3.402 1.696a.76.76 0 0 0-.416.634h5.28a.76.76 0 0 1 .414-.634l3.402-1.696c.242-.12.4-.364.404-.633M.112 22.03h5.28a.72.72 0 0 1 .403-.633l3.401-1.696a.77.77 0 0 0 .417-.633h-5.28a.76.76 0 0 1-.414.633L.517 21.397a.72.72 0 0 0-.405.634Zm12.669-2.962a.77.77 0 0 1-.418.633l-3.402 1.696a.71.71 0 0 0-.4.634h5.286a.69.69 0 0 1 .392-.634l3.402-1.696a.8.8 0 0 0 .427-.633zm15.807 0a.69.69 0 0 1-.392.633l-3.401 1.696a.8.8 0 0 0-.428.634h5.287a.77.77 0 0 1 .418-.634l3.402-1.696a.71.71 0 0 0 .401-.633z"/></svg>