<svg xmlns="http://www.w3.org/2000/svg" width="29" height="40" fill="none"><g clip-path="url(#a)"><path fill="#C1B080" d="m25.805 8.428.556.278 1.072-2.102.59.21V29.54l-.314.18a26.46 26.46 0 0 1-26.445.009l-.313-.18V6.814l.59-.211 1.071 2.102.557-.278a25.27 25.27 0 0 1 22.636 0Z"/><path fill="url(#b)" d="M28.023 30.262a27.09 27.09 0 0 1-27.072.009v1.94l13.488 6.738 13.584-6.738v-1.95Z"/><path fill="url(#c)" d="M26.085 7.865a25.9 25.9 0 0 0-23.197 0L.846 3.855a30.43 30.43 0 0 1 27.28 0z"/><path fill="#fff" fill-rule="evenodd" d="m26.361 8.705-.557-.278a25.27 25.27 0 0 0-22.635 0l-.557.278-.283-.555-.741-1.455L.287 4.14 0 3.578l.565-.283a31.05 31.05 0 0 1 27.843.001l.565.283zm-.276-.84a25.9 25.9 0 0 0-23.197 0l-.74-1.454q-.51-.997-1.017-1.996l-.285-.559a30.42 30.42 0 0 1 27.282 0l-2.043 4.01z" clip-rule="evenodd"/><path fill="#fff" fill-rule="evenodd" d="m27.433 6.604.59.21v25.398L14.439 38.95.95 32.21V6.816l.59-.211-.43-.846-1.101.395v26.64l14.428 7.208 14.526-7.206V6.153l-1.1-.395-.431.846Z" clip-rule="evenodd"/><path fill="#7F7559" d="m3.205 8.409.27.528a24.59 24.59 0 0 1 22.024 0l.27-.528a25.27 25.27 0 0 0-22.564 0"/><path fill="#3B9563" d="M.947 4.058a32 32 0 0 1 4.666-1.874A32 32 0 0 0 .97 4.102zm.14.274a32 32 0 0 1 4.617-1.855 32 32 0 0 0-4.596 1.899l-.022-.044Zm.14.274a31.5 31.5 0 0 1 4.57-1.835 31.5 31.5 0 0 0-4.55 1.879l-.022-.044Zm.138.274a31 31 0 0 1 4.522-1.816 31 31 0 0 0-4.5 1.86zm.14.274A31 31 0 0 1 5.98 3.358a31 31 0 0 0-4.452 1.84l-.022-.044Zm.14.274A30.5 30.5 0 0 1 6.07 3.65a30.5 30.5 0 0 0-4.403 1.82zm.14.274a30 30 0 0 1 4.377-1.757 30.4 30.4 0 0 0-4.356 1.8zm.14.274a30 30 0 0 1 4.33-1.738 30 30 0 0 0-4.31 1.782zm.138.274a30 30 0 0 1 4.282-1.718 30 30 0 0 0-4.26 1.762zm.14.274a29.4 29.4 0 0 1 4.233-1.7 29.4 29.4 0 0 0-4.21 1.744zm.14.274a29 29 0 0 1 4.185-1.68A29 29 0 0 0 2.365 6.84l-.023-.043Zm.14.274a29 29 0 0 1 4.137-1.66c-1.414.46-2.79 1.03-4.116 1.703zm.138.273a28.4 28.4 0 0 1 4.09-1.64A28.4 28.4 0 0 0 2.644 7.39l-.023-.044zm.14.275A28 28 0 0 1 6.803 6a28 28 0 0 0-4.02 1.663zm23.426.043A28 28 0 0 0 22.167 6c1.392.437 2.735.975 4.042 1.62zm.14-.273a28.4 28.4 0 0 0-4.067-1.684c1.408.44 2.766.986 4.09 1.64zm.14-.275a29 29 0 0 0-4.116-1.703c1.42.445 2.804 1 4.138 1.66l-.023.043Zm.14-.274a29 29 0 0 0-4.164-1.722 29 29 0 0 1 4.185 1.679l-.022.043Zm.14-.273a29.4 29.4 0 0 0-4.213-1.743 29.4 29.4 0 0 1 4.234 1.699zm.138-.274a30 30 0 0 0-4.26-1.762c1.47.46 2.902 1.035 4.282 1.718zm.14-.274a30 30 0 0 0-4.308-1.782 30 30 0 0 1 4.33 1.738zm.14-.274a30.4 30.4 0 0 0-4.356-1.801 30.4 30.4 0 0 1 4.378 1.757zm.14-.274a30.5 30.5 0 0 0-4.405-1.82c1.52.475 3 1.07 4.426 1.776zm.138-.274a31 31 0 0 0-4.45-1.84c1.54.483 3.026 1.08 4.473 1.796zm.14-.274a31 31 0 0 0-4.5-1.86 31 31 0 0 1 4.522 1.816zm.14-.274a31.5 31.5 0 0 0-4.548-1.88 31.5 31.5 0 0 1 4.57 1.836zm.14-.274a32 32 0 0 0-4.596-1.9 32 32 0 0 1 4.618 1.856zm.14-.274a32 32 0 0 0-4.645-1.918 32 32 0 0 1 4.666 1.874z"/><path fill="#C1B080" fill-rule="evenodd" d="M11.704 3.435a1.6 1.6 0 0 1-.14-.587 1.6 1.6 0 0 1 .075-.598 1.35 1.35 0 0 1 .74-.81q.268-.12.598-.14.335-.018.612.074.279.092.49.276.212.185.336.449.124.263.141.586a1.6 1.6 0 0 1-.077.598c-.06.179-.156.343-.284.482a1.4 1.4 0 0 1-.457.329q-.267.12-.6.14a1.7 1.7 0 0 1-.61-.074 1.35 1.35 0 0 1-.823-.725Zm2.18-.713a.87.87 0 0 0-.13-.43.8.8 0 0 0-.306-.278.84.84 0 0 0-.437-.085.83.83 0 0 0-.419.132.8.8 0 0 0-.36.75c.005.151.05.3.13.428.077.12.184.216.31.28a.84.84 0 0 0 .431.086.84.84 0 0 0 .425-.133.8.8 0 0 0 .274-.311.9.9 0 0 0 .081-.44zm-3.395-.33.031-.007-.143-.79a.5.5 0 0 1-.233.06l-.14-.002q-.1-.004-.216.009a2 2 0 0 0-.133.02 1.8 1.8 0 0 0-.79.33 1.35 1.35 0 0 0-.455.605 1.5 1.5 0 0 0-.056.797q.056.314.212.558a1.36 1.36 0 0 0 .91.618q.286.057.608-.002a1.47 1.47 0 0 0 .7-.307q.273-.231.382-.576a1.56 1.56 0 0 0 .034-.76.5.5 0 0 1-.006-.147.3.3 0 0 1 .04-.112l-.005-.032-1.23.224a2 2 0 0 1-.2.028 1 1 0 0 1-.17.006l.124.69.032-.005a.33.33 0 0 1 .135-.13.8.8 0 0 1 .265-.086l.39-.07a.55.55 0 0 1-.04.265.6.6 0 0 1-.21.257.8.8 0 0 1-.348.143.85.85 0 0 1-.442-.028.75.75 0 0 1-.34-.242.9.9 0 0 1-.182-.412.79.79 0 0 1 .311-.815q.192-.14.474-.193l.026-.004.034-.006q.075-.01.152-.014a1 1 0 0 1 .158.008l.012.002q.01 0 .017.003a.6.6 0 0 1 .245.086l.006.004.012.007.011.007.008.005.01.006zm-5.102 2.54a1.6 1.6 0 0 1-.282-.533 1.6 1.6 0 0 1-.073-.6 1.35 1.35 0 0 1 .516-.966 1.7 1.7 0 0 1 .545-.284q.32-.1.612-.08.291.021.543.147.25.126.436.35.185.226.281.535.098.307.074.598a1.3 1.3 0 0 1-.157.538q-.134.246-.362.43a1.7 1.7 0 0 1-.547.284q-.315.1-.609.08a1.35 1.35 0 0 1-.977-.5Zm1.936-1.23a.87.87 0 0 0-.23-.384.8.8 0 0 0-.366-.194.84.84 0 0 0-.445.026.83.83 0 0 0-.373.23.8.8 0 0 0-.193.37.86.86 0 0 0 .028.448q.075.235.232.382a.8.8 0 0 0 .37.195.84.84 0 0 0 .44-.024.84.84 0 0 0 .38-.233.8.8 0 0 0 .186-.37.9.9 0 0 0-.03-.445zm-2.535 1.72-.686.295-.672-1.564a2 2 0 0 1-.062-.167.6.6 0 0 1-.024-.125.3.3 0 0 1 .035-.182l-.012-.03-.838.36.013.03q.075.024.148.11.072.085.147.26l.714 1.66a1 1 0 0 1 .083.287.36.36 0 0 1-.026.184l.013.03 1.53-.658q.087-.037.176-.07a1 1 0 0 1 .16-.04L5.19 5.11l-.033.014a.3.3 0 0 1-.106.15q-.12.093-.262.148Zm10.25-3.891q.027.107.022.297l-.057 1.807q0 .15-.042.295a.33.33 0 0 1-.098.156v.033l.89.028.001-.032a.3.3 0 0 1-.085-.162 1.1 1.1 0 0 1-.02-.298l.056-1.806q.007-.19.04-.296l.032-.078.008-.013a.3.3 0 0 1 .056-.065v-.033l-.89-.028-.002.033q.06.054.09.162Zm1.75 2.2a1 1 0 0 0 .006.303.3.3 0 0 0 .09.165l-.004.032-.907-.092.003-.032q.065-.045.108-.15a1 1 0 0 0 .062-.291l.182-1.798q.014-.134.005-.228a.5.5 0 0 0-.042-.163.3.3 0 0 0-.05-.076l.004-.032 1.055.107q.534.054.808.356.273.3.225.778a1.04 1.04 0 0 1-.192.53.9.9 0 0 1-.427.312c-.199.068-.41.09-.62.063l-.28-.028zm.335-.785-.253-.025.092-.912.253.026q.249.026.366.155t.093.354q-.022.22-.162.324-.141.103-.39.078zm2.432-.771a3 3 0 0 0-.382.49l-.425.67q-.116.188-.207.285a.5.5 0 0 1-.17.125.33.33 0 0 1-.287-.033.3.3 0 0 1-.088-.09l-.032-.006-.125.69q.03.015.07.029l.016.006.012.004.016.005.023.007.02.006c.157.043.321.056.483.037a.8.8 0 0 0 .31-.116 1.4 1.4 0 0 0 .28-.25q.14-.156.283-.384l.424-.67q.114-.18.205-.274a.6.6 0 0 1 .165-.128.3.3 0 0 1 .094-.025.2.2 0 0 1 .082.012l.025.01a.27.27 0 0 1 .111.099l.032.005.13-.723a.3.3 0 0 1-.132-.008l-.01-.003a.9.9 0 0 0-.545-.008.94.94 0 0 0-.379.239zm1.396.19a.7.7 0 0 0 .003-.155l-.002-.012-.002-.008a.3.3 0 0 0-.04-.103l.01-.03.854.239-.008.03a.34.34 0 0 0-.127.13 1.2 1.2 0 0 0-.11.278l-.338 1.208q-.064.234 0 .38.065.15.26.204.195.055.33-.038.134-.092.2-.325l.338-1.208q.05-.183.05-.293a.3.3 0 0 0-.044-.178l.01-.031.853.239-.008.03a.3.3 0 0 0-.13.13q-.072.131-.11.277l-.35 1.25q-.093.33-.275.532a.8.8 0 0 1-.442.255 1.24 1.24 0 0 1-.59-.037 1.2 1.2 0 0 1-.52-.274.8.8 0 0 1-.247-.448 1.3 1.3 0 0 1 .041-.596l.35-1.25q.033-.111.044-.196m2.701.689a1.1 1.1 0 0 1-.085.305L22.9 5.004a1 1 0 0 1-.14.262.33.33 0 0 1-.147.113l-.012.03.82.332.011-.03a.3.3 0 0 1-.024-.181q.012-.111.083-.286l.445-1.096.436.878.015.006.925-.35-.452 1.116q-.036.088-.07.154a1 1 0 0 1-.07.11.3.3 0 0 1-.143.113l-.013.03.82.332.011-.03a.33.33 0 0 1-.026-.182 1 1 0 0 1 .082-.287l.667-1.645q.037-.094.078-.166a.8.8 0 0 1 .12-.16l.067-.052a.2.2 0 0 1 .05-.022l.011-.03-.737-.3-.009.024q.004.015.005.03v.039l-.003.017a.3.3 0 0 1-.04.1.4.4 0 0 1-.19.14l-.798.315-.386-.81a.35.35 0 0 1-.033-.22.24.24 0 0 1 .11-.154l.01-.022-.74-.3-.013.03q.044.074.032.2z" clip-rule="evenodd"/><path fill="#8B7C58" fill-rule="evenodd" d="M13.802 3.16a.87.87 0 0 0 .08-.44.87.87 0 0 0-.128-.429.8.8 0 0 0-.306-.278.84.84 0 0 0-.437-.085.83.83 0 0 0-.419.132.8.8 0 0 0-.278.31.86.86 0 0 0-.083.44c.005.152.05.3.13.428a.8.8 0 0 0 .31.28.84.84 0 0 0 .432.086.84.84 0 0 0 .425-.133.8.8 0 0 0 .274-.312Zm-.708.287a.7.7 0 0 1-.35-.069.63.63 0 0 1-.25-.225.7.7 0 0 1-.106-.35.7.7 0 0 1 .067-.363.63.63 0 0 1 .224-.25.67.67 0 0 1 .391-.107.63.63 0 0 1 .553.293c.065.107.1.229.103.353a.7.7 0 0 1-.065.361.6.6 0 0 1-.22.25.7.7 0 0 1-.347.107" clip-rule="evenodd"/><path fill="#8B7C58" fill-rule="evenodd" d="M14.183 1.532q.237.206.374.5.136.292.156.644c.013.234-.015.456-.085.657a1.5 1.5 0 0 1-.317.538q-.212.23-.507.364a1.8 1.8 0 0 1-.772.157 1.8 1.8 0 0 1-.553-.084 1.5 1.5 0 0 1-.917-.807 1.7 1.7 0 0 1-.155-.644 1.7 1.7 0 0 1 .085-.657 1.52 1.52 0 0 1 .823-.903q.295-.134.655-.153a1.8 1.8 0 0 1 .67.081q.306.101.543.307m.012 2.233q.191-.206.285-.482.094-.277.077-.598a1.6 1.6 0 0 0-.142-.587 1.3 1.3 0 0 0-.335-.448 1.4 1.4 0 0 0-.49-.276 1.7 1.7 0 0 0-.612-.074q-.33.019-.6.14a1.35 1.35 0 0 0-.74.81 1.6 1.6 0 0 0-.075.598q.018.322.14.586a1.35 1.35 0 0 0 .825.725q.28.092.61.074a1.7 1.7 0 0 0 .6-.14q.267-.12.457-.328m-6.871-.062a.9.9 0 0 1 .03.446.8.8 0 0 1-.19.37.84.84 0 0 1-.378.233.83.83 0 0 1-.44.024.8.8 0 0 1-.37-.195.86.86 0 0 1-.231-.382.86.86 0 0 1-.028-.448.8.8 0 0 1 .193-.369.8.8 0 0 1 .373-.23.84.84 0 0 1 .444-.027q.21.048.366.194a.87.87 0 0 1 .23.384Zm-.943.92a.7.7 0 0 0 .358-.02.7.7 0 0 0 .31-.19.6.6 0 0 0 .15-.296.7.7 0 0 0-.025-.367.7.7 0 0 0-.188-.316.62.62 0 0 0-.43-.17.8.8 0 0 0-.226.036.67.67 0 0 0-.305.188.63.63 0 0 0-.155.298.7.7 0 0 0 .025.366c.034.12.1.228.19.314a.63.63 0 0 0 .296.157" clip-rule="evenodd"/><path fill="#8B7C58" fill-rule="evenodd" d="M7.32 2.478q.28.142.486.392c.135.165.24.363.31.586s.097.445.08.658a1.5 1.5 0 0 1-.175.6c-.1.184-.237.347-.402.478q-.269.211-.598.31a1.9 1.9 0 0 1-.667.088 1.6 1.6 0 0 1-.603-.164 1.5 1.5 0 0 1-.377-.285l.34.789-.206.028a1 1 0 0 0-.13.033q-.08.027-.164.064l-1.674.72-.103-.24.03-.064a.2.2 0 0 0 .012-.104.8.8 0 0 0-.072-.237l-.714-1.66a1 1 0 0 0-.123-.221c-.037-.044-.063-.057-.075-.061l-.069-.022-.102-.24 1.126-.484.106.249-.042.069a.16.16 0 0 0-.013.088.5.5 0 0 0 .02.093q.018.067.054.15l.61 1.42.542-.234a1 1 0 0 0 .223-.124c.043-.035.052-.06.054-.067l.02-.076.177-.077a1.76 1.76 0 0 1-.324-1.143 1.52 1.52 0 0 1 .573-1.08q.253-.2.596-.31a1.8 1.8 0 0 1 .67-.086q.323.023.602.163h.002ZM5.326 5.843a1 1 0 0 1 .16-.04l-.298-.695-.033.015a.3.3 0 0 1-.106.15q-.12.09-.26.148l-.687.295-.673-1.564a2 2 0 0 1-.06-.167.6.6 0 0 1-.026-.125.3.3 0 0 1 .036-.182l-.013-.03-.838.36.013.03q.076.025.15.11.071.086.145.26l.714 1.66a1 1 0 0 1 .084.287.36.36 0 0 1-.026.185l.013.03 1.53-.66q.09-.036.175-.067m2.194-.774a1.4 1.4 0 0 0 .362-.43q.135-.248.157-.538a1.6 1.6 0 0 0-.073-.6 1.6 1.6 0 0 0-.282-.532 1.3 1.3 0 0 0-.436-.352 1.4 1.4 0 0 0-.543-.146 1.7 1.7 0 0 0-.61.08 1.7 1.7 0 0 0-.546.283 1.35 1.35 0 0 0-.517.968q-.022.29.074.599.096.308.281.533a1.35 1.35 0 0 0 .977.499q.295.02.61-.08.319-.1.546-.284m3.85-2.3.032-.051-.045-.245-1.385.25q-.093.017-.187.028-.075.008-.15.006l-.196-.008.19 1.037.262-.047.035-.07c.006-.011.023-.035.073-.064a.7.7 0 0 1 .215-.068l.181-.033v.003a.47.47 0 0 1-.163.2.7.7 0 0 1-.282.116.7.7 0 0 1-.362-.022.6.6 0 0 1-.27-.192.75.75 0 0 1-.15-.341.63.63 0 0 1 .25-.661 1 1 0 0 1 .431-.17l.032-.004.136-.013a1 1 0 0 1 .093.002l.068.01a.4.4 0 0 1 .122.034l.065.033.03.017.061.04.248-.044-.21-1.158-.19.104a.3.3 0 0 1-.164.04l-.128-.001a1.6 1.6 0 0 0-.384.03c-.31.05-.605.173-.858.36a1.5 1.5 0 0 0-.505.675q-.15.402-.064.88.063.344.234.615a1.53 1.53 0 0 0 1.013.688q.155.03.32.03.168 0 .346-.032.466-.084.771-.341.308-.259.432-.65c.082-.27.096-.556.04-.833a.3.3 0 0 1-.006-.096.14.14 0 0 1 .02-.053Zm-.169.178q.076.413-.034.76-.109.345-.383.575a1.5 1.5 0 0 1-.7.308q-.321.059-.608.002a1.36 1.36 0 0 1-.91-.618 1.6 1.6 0 0 1-.212-.558 1.5 1.5 0 0 1 .056-.798q.135-.36.454-.605t.791-.33a1.6 1.6 0 0 1 .35-.03q.08.005.14.003.125 0 .233-.06l.143.79-.032.007-.01-.007-.007-.005-.012-.007-.012-.007-.006-.004a.6.6 0 0 0-.262-.09h-.012a1 1 0 0 0-.158-.008v-.001l-.038.002-.114.012-.03.005h-.004l-.026.005a1.1 1.1 0 0 0-.474.193.79.79 0 0 0-.31.815q.045.243.181.412a.75.75 0 0 0 .34.242.85.85 0 0 0 .442.028.8.8 0 0 0 .348-.143.6.6 0 0 0 .21-.257.55.55 0 0 0 .04-.266l-.39.07a.8.8 0 0 0-.265.088.33.33 0 0 0-.135.13l-.03.005-.127-.69q.075.002.171-.007t.2-.028l1.23-.224.007.032a.3.3 0 0 0-.042.112.5.5 0 0 0 .007.147m6.474-.403q-.022.22-.162.324t-.39.079l-.252-.026.092-.911.253.025q.248.026.365.155t.094.354M17.2 2.19l-.096-.01-.06.6.096.01q.189.019.28-.05.084-.06.1-.213.015-.155-.055-.233-.076-.084-.265-.104" clip-rule="evenodd"/><path fill="#8B7C58" fill-rule="evenodd" d="m23.093 3.17-.35 1.25-.003.002a1.4 1.4 0 0 1-.309.594.97.97 0 0 1-.526.303 1 1 0 0 1-.235.024 1.6 1.6 0 0 1-.43-.064 1.4 1.4 0 0 1-.586-.31.97.97 0 0 1-.292-.532 1.46 1.46 0 0 1 .045-.668l.35-1.251q.027-.098.038-.173a.6.6 0 0 0 .003-.113.2.2 0 0 0-.019-.058l-.03-.047-.133.734-.256-.047-.036-.061a.1.1 0 0 0-.029-.028l-.036-.015h-.003a.1.1 0 0 0-.046.01.4.4 0 0 0-.116.094q-.105.115-.186.25l-.425.669q-.15.239-.297.406a1.5 1.5 0 0 1-.313.276.94.94 0 0 1-.537.15 1.4 1.4 0 0 1-.336-.04l-.13-.038a1 1 0 0 1-.096-.038l-.11-.05.147-.823-.02.01-.023.013a1.54 1.54 0 0 1-.69.072l-.125-.013-.01.089a.8.8 0 0 0 .003.252q.015.06.04.08l.06.055-.027.269-1.115-.113v.018L14.7 4.27l.01-.261.055-.045c.01-.008.03-.03.048-.085a1 1 0 0 0 .033-.25l.058-1.806a1 1 0 0 0-.018-.252c-.015-.056-.033-.08-.043-.088l-.052-.048.007-.261 1.205.038-.007.26-.056.046a.1.1 0 0 0-.02.026l-.026.058a1 1 0 0 0-.032.25l-.057 1.808q-.008.128.016.254c.013.053.03.075.04.084l.024-.02c.011-.006.032-.027.055-.08a1 1 0 0 0 .05-.248l.183-1.798q.011-.1.004-.197l-.008-.05-.008-.032-.012-.032a.1.1 0 0 0-.02-.033l-.05-.052.027-.26 1.21.123q.594.061.91.406c.212.234.301.537.264.9a1.2 1.2 0 0 1-.222.609 1 1 0 0 1-.247.23l.072.015.036.057q.016.025.041.042.027.018.064.024a.16.16 0 0 0 .085-.006.3.3 0 0 0 .11-.085q.08-.084.188-.26l.425-.67q.174-.283.404-.52a1.1 1.1 0 0 1 .443-.276c.203-.06.418-.058.62.003l.037.01.216-.032.015.216-.004.023.04-.143 1.156.324-.068.248-.06.03a.2.2 0 0 0-.066.074 1 1 0 0 0-.092.238l-.338 1.208q-.05.177-.008.275c.016.035.05.084.16.115.111.03.165.006.197-.016q.087-.06.137-.238l.34-1.208a1 1 0 0 0 .044-.251c0-.056-.012-.082-.019-.092l-.039-.06.07-.251 1.156.324-.069.25-.065.032a.2.2 0 0 0-.064.069 1 1 0 0 0-.09.237Zm-7.33-1.663.023-.046a.3.3 0 0 1 .055-.065l.001-.032-.89-.03-.002.034q.06.054.088.162.03.107.023.297l-.058 1.806q0 .151-.04.296a.33.33 0 0 1-.099.156v.032l.89.029.001-.032a.3.3 0 0 1-.086-.162 1.2 1.2 0 0 1-.02-.298l.057-1.806q.006-.19.04-.296zm1.331 2.007q.354.036.621-.063a.9.9 0 0 0 .427-.312c.111-.156.177-.34.19-.53q.05-.477-.224-.78-.274-.3-.808-.354l-1.055-.107-.004.032q.03.03.05.076a.5.5 0 0 1 .042.163q.009.095-.005.228l-.182 1.798q-.01.15-.062.292a.33.33 0 0 1-.108.15l-.004.03.908.093.003-.032a.3.3 0 0 1-.089-.165 1 1 0 0 1-.005-.303l.024-.244zm3.366-.843.032.006.13-.723a.3.3 0 0 1-.133-.01l-.01-.001a.9.9 0 0 0-.545-.009.95.95 0 0 0-.379.24 3 3 0 0 0-.38.49l-.425.67q-.117.188-.208.284a.5.5 0 0 1-.17.125.3.3 0 0 1-.166.013.3.3 0 0 1-.12-.046.3.3 0 0 1-.09-.09l-.03-.006-.126.69q.03.014.07.029l.016.006.012.004.016.005q.021.008.042.013.056.015.113.025.202.038.37.012a.8.8 0 0 0 .31-.116q.142-.09.281-.25.14-.155.283-.384l.424-.67q.115-.18.206-.274a.6.6 0 0 1 .164-.128.3.3 0 0 1 .094-.024.2.2 0 0 1 .082.01.3.3 0 0 1 .137.108Zm.824 2.456q.33.093.59.038a.8.8 0 0 0 .443-.255q.181-.2.274-.53l.35-1.252q.052-.183.11-.277.046-.084.13-.13l.01-.03-.856-.24-.008.032a.3.3 0 0 1 .044.177q0 .111-.05.294l-.339 1.208q-.065.234-.2.325-.135.092-.33.038-.193-.054-.259-.203-.066-.148 0-.38l.34-1.21q.035-.146.108-.276a.34.34 0 0 1 .126-.13l.01-.031-.856-.24-.009.03a.3.3 0 0 1 .038.095l.001.006v.003l.002.008V2.2l.002.01a.7.7 0 0 1-.002.155q-.015.098-.043.195l-.35 1.25a1.3 1.3 0 0 0-.042.597.8.8 0 0 0 .245.448q.195.18.52.273zm4.483-1.61-.154-.035-.06.145-.017.075.01.048a.1.1 0 0 1-.016.04.25.25 0 0 1-.118.08l-.66.26-.32-.676q-.036-.075-.025-.121a.08.08 0 0 1 .042-.056l.05-.05.08-.191-1.032-.418-.1.247.04.067c.005.01.016.038.01.106a1 1 0 0 1-.074.26l-.667 1.647a1 1 0 0 1-.118.223c-.036.045-.062.058-.074.062l-.068.023-.097.243 1.108.448.1-.24-.034-.065a.2.2 0 0 1-.008-.094 1 1 0 0 1 .073-.244l.313-.773.281.567.042.059.111.045.648-.245-.318.785q-.028.071-.064.139a1 1 0 0 1-.053.086c-.035.044-.06.058-.072.06l-.067.024-.1.242 1.11.45.1-.242-.034-.064c-.006-.012-.015-.04-.01-.096a1 1 0 0 1 .072-.243l.666-1.645q.034-.084.07-.147a.7.7 0 0 1 .092-.124l.025-.021.028-.016.072-.022.1-.245-.883-.357Zm.666.475a.2.2 0 0 0-.078.04.6.6 0 0 0-.158.194q-.045.08-.079.166l-.666 1.645q-.06.137-.082.287a.33.33 0 0 0 .026.182l-.012.03-.819-.332.012-.03a.3.3 0 0 0 .144-.113 1 1 0 0 0 .07-.11q.034-.066.07-.153l.452-1.117-.925.35-.015-.006-.436-.878-.445 1.096q-.06.137-.083.286a.3.3 0 0 0 .024.182l-.012.03-.819-.332.012-.03a.33.33 0 0 0 .146-.113q.09-.122.142-.263l.667-1.645q.064-.147.084-.305a.33.33 0 0 0-.032-.2l.013-.03.74.3-.01.022a.24.24 0 0 0-.11.154.35.35 0 0 0 .033.22l.386.81.797-.313a.4.4 0 0 0 .192-.14.3.3 0 0 0 .04-.101l.002-.017v-.042q0-.015-.004-.03l.01-.022.735.299z" clip-rule="evenodd"/><path fill="#7F7559" d="m2.004 9.72.176.542h.571l-.462.336.177.543-.462-.335-.462.335.176-.543-.462-.336h.571zm24.966 0 .176.542h.571l-.462.336.177.543-.462-.335-.462.335.176-.543-.462-.336h.571zM2.004 27.27l.176.543h.571l-.462.336.177.543-.462-.336-.462.336.176-.543-.462-.336h.571zm24.966 0 .176.543h.571l-.462.336.177.543-.462-.336-.462.336.176-.543-.462-.336h.571zm1.053 2.267-.314.18a26.46 26.46 0 0 1-26.445.01l-.313-.18v.723a27.09 27.09 0 0 0 27.072-.01z"/><path fill="#C1B080" d="M9.548 35.555a.253.253 0 1 0 0-.506.253.253 0 0 0 0 .506m9.867 0a.253.253 0 1 0 0-.506.253.253 0 0 0 0 .506m-8.711.225h.43a.3.3 0 0 0 .103-.018.1.1 0 0 0 .037-.027.1.1 0 0 0 .018-.025h.012v.222l-.055-.01-.064-.002h-.69v-.014a.1.1 0 0 0 .043-.054.3.3 0 0 0 .017-.107v-.847a.3.3 0 0 0-.018-.108.1.1 0 0 0-.043-.053v-.014h.68a.6.6 0 0 0 .12-.012v.222h-.014a.1.1 0 0 0-.055-.052l-.036-.012a.3.3 0 0 0-.065-.006h-.42v.31h.222q.033 0 .055-.003l.03-.008a.1.1 0 0 0 .042-.032h.012v.226h-.012a.1.1 0 0 0-.042-.031.2.2 0 0 0-.085-.012h-.222zm1.2-.863h-.014a.1.1 0 0 0-.03-.028.2.2 0 0 0-.054-.026l-.009-.002a.3.3 0 0 0-.06-.008.22.22 0 0 0-.143.045.14.14 0 0 0-.054.115q0 .053.03.095.03.04.102.089l.09.058q.07.045.125.105a.4.4 0 0 1 .075.11q.024.06.024.13a.3.3 0 0 1-.106.238.44.44 0 0 1-.298.09 1 1 0 0 1-.103-.006l-.083-.012v-.195h.012l.028.028.031.019.005.003a.3.3 0 0 0 .116.026.27.27 0 0 0 .174-.052.17.17 0 0 0 .064-.138.2.2 0 0 0-.04-.12.3.3 0 0 0-.037-.04 1 1 0 0 0-.1-.076l-.088-.061-.067-.05a.3.3 0 0 1-.114-.24q0-.135.1-.217a.42.42 0 0 1 .275-.083h.02l.037.004h.026a.4.4 0 0 0 .065-.007v.206Zm.246-.054h.195v.892a.3.3 0 0 1-.015.1.1.1 0 0 1-.042.053v.012h.264v-.012a.1.1 0 0 1-.044-.052.3.3 0 0 1-.013-.1v-.893h.196a.2.2 0 0 1 .1.018.1.1 0 0 1 .056.052h.014v-.222a.6.6 0 0 1-.12.012H12.1a.6.6 0 0 1-.12-.012v.222h.014a.1.1 0 0 1 .054-.052.3.3 0 0 1 .103-.018Zm1.27-.013.002.046v.86a.3.3 0 0 1-.016.1.1.1 0 0 1-.04.052v.012h.26v-.012a.1.1 0 0 1-.04-.052.3.3 0 0 1-.015-.1v-.76l.404.395h.007l.405-.4v.764a.3.3 0 0 1-.007.073l-.01.028a.1.1 0 0 1-.039.052v.012h.258v-.012a.1.1 0 0 1-.037-.047l-.002-.005a.3.3 0 0 1-.014-.1v-.86a.4.4 0 0 1 .015-.104.12.12 0 0 1 .042-.057v-.012h-.229v.008a.07.07 0 0 1 .012.056.13.13 0 0 1-.04.066l-.354.354-.367-.36a.12.12 0 0 1-.037-.062.06.06 0 0 1 .014-.053v-.01h-.23v.013a.1.1 0 0 1 .044.057.2.2 0 0 1 .014.058m1.321-.023-.01-.035a.1.1 0 0 0-.043-.057v-.012h.23v.008a.1.1 0 0 0-.015.029v.025a.12.12 0 0 0 .037.063l.367.36.354-.355.006-.006.023-.03q.01-.015.011-.03a.07.07 0 0 0-.012-.056v-.008h.23v.012a.1.1 0 0 0-.027.027.2.2 0 0 0-.024.056.4.4 0 0 0-.007.078v.86q0 .065.014.1a.1.1 0 0 0 .04.052v.012h-.259v-.012a.1.1 0 0 0 .04-.052.3.3 0 0 0 .015-.1v-.764l-.404.399H15.3l-.404-.394v.758a.3.3 0 0 0 .014.1q.015.035.04.053v.012h-.259v-.012a.1.1 0 0 0 .022-.02l.002-.002.002-.004.004-.005a.25.25 0 0 0 .026-.121v-.86a.4.4 0 0 0-.006-.07Zm2.266 1.056a.3.3 0 0 1-.042-.048l-.369-.545.326-.486a.2.2 0 0 1 .081-.069v-.012h-.272v.012q.018.007.026.03.01.02-.012.055l-.244.367-.25-.37q-.021-.033-.01-.054a.06.06 0 0 1 .027-.028v-.012h-.285v.012q.004 0 .008.003l.025.015.006.005q.024.017.04.04l.335.496-.36.529a.4.4 0 0 1-.048.057l-.002.002-.038.026v.012h.277v-.012a.07.07 0 0 1-.03-.037l.001-.027a.2.2 0 0 1 .02-.04l.275-.402.28.409q.022.034.015.059a.06.06 0 0 1-.028.038v.012h.286v-.012a.1.1 0 0 1-.038-.025m.127-.995a.5.5 0 0 0-.013-.101.1.1 0 0 0-.042-.052v-.012h.258v.012a.1.1 0 0 0-.04.052.2.2 0 0 0-.01.043l-.003.058v.867q0 .067.013.1.015.035.04.053v.012h-.258v-.012a.1.1 0 0 0 .038-.045l.002-.004.001-.003a.3.3 0 0 0 .014-.1zm1.272.97.024.026q.021.017.038.024v.012h-.286v-.012a.06.06 0 0 0 .028-.038l.002-.011v-.012a.1.1 0 0 0-.017-.036l-.28-.41-.274.403a.2.2 0 0 0-.02.036.05.05 0 0 0 0 .03.06.06 0 0 0 .029.038v.012h-.278v-.012l.015-.01.01-.006a.3.3 0 0 0 .064-.07l.36-.53-.336-.493-.017-.022a.2.2 0 0 0-.061-.042v-.012h.284v.012a.06.06 0 0 0-.027.028q-.01.021.01.053l.25.37.244-.366a.1.1 0 0 0 .015-.035v-.012l-.003-.01a.05.05 0 0 0-.026-.029v-.011h.273v.012a.2.2 0 0 0-.038.024.2.2 0 0 0-.044.045l-.325.486.37.545.007.01.005.008zm-5.578.048a.1.1 0 0 1-.03-.076q0-.043.03-.075a.1.1 0 0 1 .078-.031q.045 0 .074.03a.1.1 0 0 1 .024.035.11.11 0 0 1-.024.117.1.1 0 0 1-.025.02.1.1 0 0 1-.06.01l-.015-.001-.028-.01a.1.1 0 0 1-.024-.02Z"/><path fill="#fff" d="m7.215 10.789-2.16-2.574q.152-.064.305-.124l2.067 2.462a4 4 0 0 0-.212.236m1.447-1.365L7.468 7.357l.31-.09L8.871 9.16q-.105.119-.197.248zm1.607-1.378-.46-1.263.312-.059.422 1.161a1 1 0 0 0-.275.162zm2.024-.464-.2-1.132.314-.029.17.956a1.3 1.3 0 0 0-.266.208zm2.058-.216V6.334h.314v.963q-.158.02-.314.069m2.072.107.184-1.048q.158.014.314.03l-.197 1.116a1 1 0 0 0-.3-.098Zm1.888.855.581-1.596.312.06-.633 1.74a9 9 0 0 0-.26-.204m1.54 1.342 1.38-2.392.31.09-1.448 2.508-.243-.207v.001Zm1.366 1.326 2.427-2.892.305.125-2.565 3.057a2.4 2.4 0 0 0-.167-.29m3.162-3.28-.29-.143h.002l.29.143zM.95 8.065v-.41l5.728 4.805c.007.177.049.352.123.513zm0 3.525v-.362l5.5 3.172q-.063.15-.105.303zm0 2.879v-.334l4.898 1.783q-.088.134-.166.273zm0 2.536v-.318l4.48.79a3 3 0 0 1-.105.3zm0 2.388v-.313h3.946a2 2 0 0 0-.01.314H.95zm0 2.394v-.319l4.298-.758c-.004.1-.006.208.002.319zm0 2.551v-.334L5.8 22.24q.024.18.045.317zm0 2.907v-.362l5.442-3.142.018.016.015.012-.059.35zm.612 2.651L6.18 26.02a1 1 0 0 1-.068.186c-.083.177-.23.374-.388.583l-.046.061-3.823 3.208-.294-.162zm2.696 1.314.802-.956.326.099-.824.982zm2.616.937.701-1.215q.17.05.305.099l-.697 1.207-.31-.09zm2.54.627.17-.463.33.01-.187.512zm2.484.363.151-.855c.13-.008.242-.018.324-.029l-.16.913zm15.535-3.261-5.436-4.56q-.018.194-.026.387l5.167 4.336q.15-.08.294-.163zm-2.688 1.315-.942-1.122-.34.083.978 1.165zm-2.61.941-.863-1.495-.065.011-.263.047.882 1.529zm-2.535.631-.597-1.638-.055.022-.019.087-.002.011q-.03.172-.09.337l.45 1.241zm-2.482.368-.139-.788q-.13.003-.264.003h-.054l.144.815zm-2.452.131V32.23l-.139-.022a1 1 0 0 1-.175-.047v1.102zm13.357-6.404v.362l-5.87-3.389q.015-.174.024-.348zm0-2.87v.334l-5.533-2.014q.009-.12.012-.24l.002-.043.001-.045zm0-2.528v.319l-4.959-.875q.014-.16.005-.317zm0-2.38v.314H23.36q.014-.164.006-.314zm0-2.386v.319l-4.995.88a7 7 0 0 1-.12-.297zm0-2.544v.335l-5.32 1.936a2 2 0 0 0-.15-.28zm0-2.897v.362l-6.062 3.5-.038-.146-.043-.17zm0-3.561v.41l-6.703 5.624-.019-.023-.047-.06q.074-.2.153-.4z"/><path fill="#fff" d="M13.071 7.676c.51-.068.985.42 1.043.42.025 0 .276-.265.415-.315a1.2 1.2 0 0 1 .938.035c.048.022.18.205.208.21.04.006.49-.18.764-.14.288.041.4.308.556.35.332.09.436-.052.833.21.573.376 1.2.98 1.702 1.435.852.775 1.835 1.277 1.684 2.644-.027.252-.396 1.04-.381 1.155.006.041.425.55.487.665.212.402.232.81.38 1.156.169.39.628.81.73 1.26.04.18-.003.53.035.665.224.81.707 1.265.451 2.24-.021.085-.238.391-.242.421-.027.155.053.55 0 .805-.084.401-.497.697-.521.77-.04.12-.02.57-.07.77-.055.226-.191.45-.277.666 0 1.176-.398 2.742-.12 3.323.396.618.988.91 1.195 2.104l2.17.262.193.228c-.134.004-.178.142-.26.192-.283.168-2.616.686-3.127.806-.471.11-3.052.482-3.212.787-.152.29-.03.77-.573.928-.587.171-2.73.083-3.368-.035-.646-.12-.426-1.062-.557-1.12h-.972c-.092.494-.125 1.047-.73 1.155-.428.076-2.665.104-3.09.035-.602-.097-.556-.685-.747-.963-.223-.325-2.213-.71-2.69-.857-.39-.12-1.474-.43-1.772-.596-.145-.08-.268-.22-.226-.402.07-.303 1.268-.224 1.545-.298.13-.058.133-.585.191-.753.19-.546.74-1.043.973-1.54.24-.51.12-.95.173-1.506.02-.192.23-1.266.21-1.33-.008-.02-.264-.198-.314-.28a4 4 0 0 1-.243-.525c-.065-.203-.143-1.007-.173-1.05-.045-.063-.31-.11-.417-.42-.136-.395.013-.865-.07-1.156-.006-.023-.233-.25-.277-.385-.283-.865.33-1.537.486-2.276.056-.264-.013-.518.07-.805.094-.329.462-.746.59-1.05s.173-.722.312-1.05c.098-.232.63-1.013.625-1.156-.002-.109-.316-.628-.347-.84-.194-1.338.85-1.882 1.684-2.644.174-.158.28-.405.486-.56.126-.094.372-.144.452-.21.21-.174.737-.8.938-.84.15-.03.518.04.625 0 .057-.022.098-.265.416-.315.213-.034.647.095.73.07.055-.017.201-.313.486-.35"/><path fill="#6F5B25" fill-rule="evenodd" d="M14.079 8.307c-.244-.332-.623-.544-1.042-.49l.903 1.925a8 8 0 0 1-.29-.45c-.432-.7-.882-1.428-1.846-1.143a.6.6 0 0 0 .205.084c.13.036.236.065.108.196.558.41 1.546 1.228 1.84 1.856l.015.028c.029.055.066.126.003.164-.52-.797-1.94-2.187-2.952-1.995-.06.011-.282.105-.296.192 1.052.07 2.085.648 2.779 1.436.077.087.139.19.2.292.172.286.334.555.79.39.032-.011.112-.17.188-.32.057-.112.11-.219.14-.257.628-.79 1.81-1.481 2.814-1.576-.72-.62-1.882.403-2.413.928l-.015.015c-.28.277-.564.558-.715.93-.23.012.358-.806.4-.857.345-.43.875-.863 1.346-1.248q.187-.152.355-.293c-.49-.312-1.094.05-1.423.455-.034.042-.101.161-.184.308-.214.38-.533.946-.667.865-.047-.028.216-.525.467-1 .224-.423.438-.828.418-.873-.38-.168-.667.066-.938.289a4 4 0 0 1-.19.149m.798-.175c.036.011.03.13-.034.105-.053-.02.023-.109.034-.105m1.32 0c.159.13.067.146-.075.17l-.03.005zm-.312.21-.903.98a2.47 2.47 0 0 1 .903-.98m-1.702 1.96c.159-.07.157.328.07.35-.134-.01-.145-.316-.07-.35m-.417-1.715c.088-.042.195.348.174.42-.105.058-.172-.354-.174-.42m.973-.175-.278.56c-.102-.049.194-.516.278-.56m-1.737.245.336.44-.082-.08c-.13-.122-.34-.319-.254-.36m.348.456-.012-.016zm.855.197-.022-.127c-.028 0-.053.525.035.56.04-.145.013-.29-.013-.433m-.473-1.003c.104-.007.158.175.069.175-.021 0-.117-.15-.07-.175Zm.416 1.716c.062-.038.1.186.035.175zm.278-1.68c.043.064.014.144-.035.07-.017-.027-.004-.037.013-.05z" clip-rule="evenodd"/><path fill="#6F5B25" d="M18.316 9.077c-.166-.302-.751-.28-1.041-.245-.668.082-1.772.793-2.206 1.313-.042.051-.587.787-.26.613.686-.989 1.955-1.946 3.212-1.733-1.135.037-2.318.63-2.778 1.715l.087.053c.574-1.117 1.788-1.632 2.986-1.716m-7.71 4.376-1.615 2.4 1.58-2.225-.781 1.523.364-.437c.068.072-.081.282-.161.395l-.03.042c-.415.615-.976 1.184-1.542 1.758-.686.696-1.38 1.4-1.826 2.2-.37.66-.467 1.144-.504 1.907-.49-2.03.938-3.628 2.237-5.08.28-.315.554-.62.802-.925.09-.11.178-.235.267-.36.192-.274.39-.555.636-.725-.415.803-1.064 1.536-1.716 2.272-.89 1.005-1.786 2.016-2.104 3.225l-.006.02c-.017.056-.057.188.006.19.317-1.197 1.104-2.102 1.886-3 .245-.282.49-.562.718-.85.226-.285.435-.583.643-.88.356-.507.71-1.013 1.146-1.45m6.32 5.707c.86.567 1.409 1.911 1.234 2.923-.126.728-.78 1.112-.625.07l.07-.035.173.105c.01-.368-.097-.707-.206-1.048a9 9 0 0 1-.107-.352l-.034.28-.59-1.435.45.315-.52-.63c.286.057.47.37.63.644q.088.152.169.266l.017.027c.027.047.064.11.087.008zm-1.58 7.124-.016-1.697c-.33.32-.264.692-.196 1.07.058.32.116.643-.064.943-.03-.076-.038-.335-.046-.616-.012-.41-.026-.866-.11-.872-.22.316-.15.72-.082 1.111.03.178.06.353.064.517.003.188-.02.386-.04.586-.036.313-.071.632-.012.936.414-.682.733-1.526.816-2.328.005-.053.037-1.163-.08-1.233a.2.2 0 0 0 .045-.062c.022-.045-.018-.456-.052-.473-.124.081-.104.503-.024.54a.3.3 0 0 0-.063.108c-.028.07-.015.301-.002.553.013.256.028.53.002.672-.004.024-.062.294-.14.245m-3.756-6.447.006-.012a.5.5 0 0 1 .079-.057c.054-.035.109-.07.13-.135-.112.001-.145.068-.183.143l-.026.05-.018.017c-.142.136-.257.244-.364.42l-.416 1.085c.054-.834.596-1.518 1.146-2.1-.645.362-.925.973-1.198 1.628.114-.634.533-1.273 1.059-1.664-.125-.105-.43.186-.521.28-.66.681-1.08 2.266-.59 3.117.428.744.648-.365.295-.648l-.174.245.1-.357c.189-.687.387-1.409.82-1.97l-.225.156c-.03-.014.053-.154.08-.198m4.938 5.047a4.5 4.5 0 0 0-.122-1.173l-.208 1.681-.017-1.488c-.073.01-.168.343-.174.385-.02.154-.012.316-.003.478q.025.278-.015.555c-.034 0-.06-.36-.08-.669a4 4 0 0 0-.041-.434c-.014-.037-.11-.126-.14-.035l.227 3.133c.023.015.278-.424.295-.472.113-.328.263-1.583.278-1.96Zm-4.88 2.433c-.83-1.249-.533-2.883-.277-4.27.164.306.103.664.043 1.018-.033.195-.066.39-.06.574.078-.108.096-.256.114-.403.013-.104.025-.208.06-.297.012-.033.194-.393.242-.245-.236 1.204-.212 2.408-.121 3.623Zm1.315-2.104c.012-.384.024-.769-.03-1.152l-.065.406c-.097.585-.207 1.244-.16 1.783.06.68.45 1.461.787 2.13q.108.212.203.408l-.06-.31c-.252-1.316-.495-2.58-.48-3.944l-.068 1.996c-.07.067-.102-.194-.104-.21-.046-.368-.035-.738-.023-1.107"/><path fill="#6F5B25" d="M18.489 22.1c.753-1.226.006-3.088-1.215-3.71l.99 1.383-.07.035c-.21-.409-.553-.94-1.007-1.087.612.634 1.115 1.483 1.18 2.381l.14-.244-.018 1.241Zm-9.006-1.55c.1-.235.335-.783.116-.726-.07.02-.586 1.095-.643 1.243-.396 1.046-.526 2.183-.225 3.273.134-1.25.366-2.485.712-3.692l.04-.099Zm7.06-.026c.26.16.315.448.369.729.029.151.058.302.118.427.039-.021-.004-.204-.042-.367-.025-.108-.048-.207-.044-.245q.001-.006.019-.02c.044-.04.144-.127.085-.26.46.29-.1 2.573-.365 2.572-.2 0-.104-.8-.047-1.262.016-.14.03-.247.03-.296.113.127.08.358.053.553l-.018.148c.105-.087.104-.357.104-.498v-.027c0-.43-.115-.879-.222-1.3zm-4.548.035-.156.823c-.105.075-.102.227-.1.387.003.099.005.2-.018.288l.36-1.024a4 4 0 0 1-.088.514c-.076.345-.152.69-.033 1.043l.07-.7c.076-.015.128 1.498.035 1.54-.8-.75-.702-2.008-.07-2.87Zm7.535-3.71c.84.69 2.797 2.503 2.588 3.694-.005.026-.06.192-.087.192-.154-1.218-.918-2.07-1.683-2.922-.283-.316-.565-.63-.817-.964zm-10.765.104c.079.01.06.032.038.06l-.02.028c-.187.345-.52.726-.867 1.122-.36.41-.733.838-.974 1.26-.26.455-.427.878-.573 1.383-.144-1.23.739-2.12 1.576-2.965.295-.297.584-.588.82-.888m1.563-8.087c.184-.038.699.005.903.036 1.042.153 1.946.992 2.518 1.838-.061.224-.391-.238-.548-.457a2 2 0 0 0-.077-.103c-.782-.806-1.991-1.386-3.108-1.069.002-.09.26-.234.312-.245m5.626 12.57c.21.25.19 2.11.035 2.17a.33.33 0 0 1-.191-.123c-.097-.128-.16-1.15-.174-1.4l-.003-.04c-.007-.104-.02-.258.072-.31l.174 1.436a5 5 0 0 0 0-.459c-.008-.518-.02-1.274.087-1.274m-7.258-6.932-2.344 1.978c.226-.81.868-1.147 1.523-1.492.282-.149.566-.297.82-.486Zm11.32.21c.86.386 1.84.915 2.102 1.908l-2.101-1.909Zm-7.431 6.722c.144.137.02.367-.031.465a.2.2 0 0 0-.02.043c0 .012.016.015.033.017s.035.004.036.018c.01.155.04.25.078.366l.043.14c.07-.095.062-.232.054-.37-.01-.163-.018-.326.103-.417q-.03.367-.003.733c.014.352.028.713-.032.947-.063.244-.204.17-.278-.035-.171-.476-.13-1.42.018-1.907z"/><path fill="#6F5B25" d="M10.26 9.077c.898-.021 2.166.45 2.726 1.173.062.08.449.642.208.56-.023-.008-.14-.152-.271-.316h-.001c-.152-.19-.325-.403-.405-.472-.33-.282-.838-.536-1.25-.665a3 3 0 0 0-.376-.075c-.245-.038-.496-.077-.631-.205m8.716.455c.043-.005.1.06.153.12a.5.5 0 0 0 .073.073l-.018.087c-1.23-.415-2.502.072-3.125 1.226-.07-.101.116-.32.274-.506.124-.146.23-.271.177-.3-.263.19-.482.435-.642.718l-.07-.035c.442-.732 1.286-1.273 2.136-1.348.23-.02.422.007.616.034.104.014.21.029.322.036.007 0 .028-.024.05-.05s.045-.054.054-.055"/><path fill="#6F5B25" d="M9.842 9.358c1.06-.17 2.604.52 3.177 1.453.003.034-.04.05-.086.018a1 1 0 0 1-.125-.163c-.118-.17-.28-.4-.362-.362l.244.595c-.544-1.154-1.835-1.531-3.022-1.436-.032-.057.154-.102.174-.105"/><path fill="#6F5B25" d="M9.53 9.602c1.088-.173 2.665.29 3.039 1.453-.112-.105-.197-.223-.283-.34a2 2 0 0 0-.36-.413c-.683-.556-1.883-.753-2.71-.455-.15-.098.294-.241.315-.245Zm8.75.175c.45-.025 1.296.124 1.39.665-.754-.71-1.843-.694-2.674-.14l-.816.787a2.51 2.51 0 0 1 2.1-1.312m2.328 4.096c.261.027.872 1.427.8 1.47L20.172 14.1c.266-.088.476.197.67.458.098.134.192.26.285.33z"/><path fill="#6F5B25" d="M17.794 9.288c.282-.032.67-.011.938.07.044.056-.323.045-.587.038a3 3 0 0 0-.247-.003c-.491.058-1.395.477-1.77.805-.105.09-.178.197-.248.3-.087.125-.168.243-.292.313.162-.743 1.536-1.447 2.206-1.523m-8.022.525c1.069-.104 2.02.412 2.623 1.278-.008.21-.352-.253-.496-.446l-.06-.08c-.82-.782-2.267-.907-3.109-.087.085-.394.678-.63 1.042-.665"/><path fill="#6F5B25" d="M9.945 10.021c.265-.013.843.083 1.077.21.163.09.94 1.021.92 1.139-.032.187-.296-.25-.422-.458l-.064-.103c-.694-.802-1.41-.8-2.38-.473.18-.183.625-.303.87-.315Zm3.334 14.81c.202.393.211.82.22 1.25.005.22.01.44.04.659l-.086.122-.174-2.03Zm4.653-14.81c.405-.074 1.145.028 1.442.333-1.217-.592-2.152-.08-2.76 1.034.003-.454.94-1.296 1.318-1.367m-1.215 13.724c.18.618.056 1.255-.104 1.857-.046-.18-.085-1.904.104-1.857m0-10.258c.227-.114.286.456-.035.597-.582.255-.637-.48-.469-.438.046.03.072.087.097.145.037.085.073.165.164.152.111-.025.177-.248.213-.373a.3.3 0 0 1 .03-.082Zm-4.828.07c.081-.013.113.083.146.184.03.09.061.186.133.203.14.031.183-.074.221-.166.03-.072.057-.136.126-.116.265.406-.23.597-.556.386-.139-.09-.235-.463-.07-.49Z"/><path fill="#6F5B25" fill-rule="evenodd" d="m10.397 11.502.053.026c.023.01.09.049.178.098l.002.002c.232.13.596.339.618.302-.077-.295-.307-.523-.52-.717-1.513-1.375-4.31-.267-3.056 1.838.22.369.34.327.48.28.077-.027.16-.055.266-.018l.035.07-.13.098-.252.007c-.19.103 1.284.635 1.39.49l-.21-.14.643-.017a2 2 0 0 0-.253-.023c-.196-.011-.424-.024-.528-.1-.163-.117.053-.077.29-.033.212.04.441.083.422.016-.335-.023-.554-.181-.782-.346a2.4 2.4 0 0 0-.468-.284c.547.08.482.045.305-.047-.12-.062-.292-.152-.358-.25l.504.087-.695-.35c.021-.007.102.015.2.04.197.052.464.123.46.03l-.729-.28h.66l-.695-.316.73.035-.695-.28.73.07c-.03-.038-.145-.087-.266-.14-.17-.072-.352-.15-.325-.21l.642.228c-.16-.155-.148-.242-.136-.32.013-.084.024-.157-.194-.293.055-.102.41.269.47.333.46.042.871.28 1.284.519.25.145.502.29.764.39.19-.097-.375-.388-.828-.62-.278-.143-.514-.264-.509-.307.02-.102.356.06.503.133zm.167-.246.025-.008.208.262c-.02.045-.286-.07-.312-.087a.3.3 0 0 0-.05-.025c-.028-.011-.05-.02-.055-.045v-.018a.7.7 0 0 1 .184-.08Zm-2.736 1.672.434.228c-.285.204-.388.095-.434-.228m1.458-1.96.504.332c-.028.079-.758-.256-.504-.332m-1.7 1.295c.014-.011.321.23.172.28-.178.06-.245-.224-.173-.28Zm-.07-.245c.07-.053.251.113.26.193-.025.08-.4-.085-.26-.193m.14.63c.011-.007.261.088.26.123-.12.154-.372-.06-.26-.123m.762-1.505.33.227c-.01.02-.438-.061-.33-.227m-.347.035c.054-.01.303.24.173.245-.064.003-.2-.17-.173-.245m1.831-.084q.05.028.096.049c.02.008.053.01.09.014.093.008.208.017.153.108-.022.038-.136-.027-.2-.065q-.031-.018-.043-.022l-.075-.023a.6.6 0 0 1-.272-.135c.09-.016.172.03.251.074m-2.283.68c.043-.002.104.055.122.087.116.21-.305-.081-.122-.088Zm0-.246c.037-.025.132.024.122.088-.089.072-.2-.034-.122-.088m2.466-.63a.6.6 0 0 1 .121.087c-.03.08-.205-.055-.12-.087Zm-2.292.35c.12-.015.084.132-.035.07-.034-.018.027-.07.035-.07m.764-.35c.006-.002.1.08.07.105-.052.02-.123-.09-.07-.105m.677 7.597.062-.092c.346-.513.702-1.04 1.188-1.431-.028.248-.235.435-.435.616-.094.086-.187.17-.26.26l-.036.044a8 8 0 0 0-.484.638c-.82 1.27-1.386 2.915-1.233 4.446l.052-.963c-.067-1.024 1.646-4.4 2.483-4.744l.03-.012c.064-.03.103-.046.092.065-1 1.199-1.939 2.56-2.275 4.114.441-1.48 1.297-2.792 2.327-3.921.228.048-.458.805-.538.892-.014.107.164-.052.224-.106l.018-.016c-.004.006 0 .023 0 .04.003.02.006.04 0 .047-.06.072-.148.144-.242.22-.186.152-.393.32-.435.533.18-.276 1.431-1.105 1.667-1.015.137.052-.078.15-.23.22-.052.025-.097.046-.117.06-.3.208-.68.516-.92.788-.04.044-.128.19-.213.328-.087.143-.17.278-.187.284-.056.02-.069-.014-.08-.045-.016-.047-.028-.082-.18.098-.353.418-.786 1.59-.903 2.135-.234 1.088-.298 2.34-.017 3.414-1.57-2.16-.72-4.884.642-6.897m-1.128 4.762c.046.063.026.198.01.3l-.01.085-.052-.158zm.208-.316.07-.42-.087.158zm-.07 1.016c.035-.007.085.132.036.175-.022-.026-.087-.165-.036-.175" clip-rule="evenodd"/><path fill="#6F5B25" d="M10.45 18.286a1 1 0 0 0 .075-.117c.054-.093.112-.191.22-.233-.009.124-.17.252-.27.33zm-.817-5.007c.1-.013.84.056.816.193-.09.166-1.12.029-1.077-.105.064-.033.198-.08.261-.088"/><path fill="#6F5B25" fill-rule="evenodd" d="M19.2 18.495c-.14-.21-.31-.405-.478-.6-.294-.338-.587-.675-.72-1.08.204.29.429.56.654.832.21.255.42.51.614.779.99 1.38 1.573 3.012 1.459 4.744-.052.78-.258 1.708-.886 2.222.495-1.703.207-3.88-.607-5.444l-.002-.003c-.011-.021-.091-.18-.103-.067.475 1.091.886 2.253.834 3.466l-.174 1.015-.032-.362a16 16 0 0 0-.176-1.459c-.135-.727-.375-1.53-.59-2.24.163-.123.105-.13.024-.136-.048-.005-.103-.01-.13-.038a.8.8 0 0 1-.071-.23 1 1 0 0 0-.067-.226 4.7 4.7 0 0 0-.885-1.102 2 2 0 0 0-.135-.09c-.207-.133-.547-.348-.386-.4.063 0 .123.03.179.055l.03.014c.097.044.387.276.643.479.21.169.398.318.433.327.023.005.073.006.087-.018-.1-.105-.19-.22-.28-.334l-.137-.174a5 5 0 0 0-.144-.16l-.005-.006c-.231-.25-.607-.659-.58-.797l.052-.052q.144.162.289.32l.003.003c.164.183.329.363.49.552.698.82 1.305 1.729 1.614 2.765l-.087-.437c.04-.473-.926-1.688-1.578-2.506-.32-.402-.565-.71-.575-.784-.008-.064-.003-.163.087-.159.132.008 1.504 1.836 1.65 2.083.344.587.715 1.57.833 2.241.09.514.089 1.058.087 1.58v.083c.222-1.614-.351-3.328-1.234-4.655Zm1.095 5.287c.009.183-.034.442-.14.596.018-.19.06-.424.14-.596m-.028-.82c.018-.13.043-.31-.041-.404l-.007.047c-.018.131-.043.311.04.407zm.167.33c.096.025.05.237.035.31v.006c-.096-.027-.052-.239-.036-.311v-.005Zm-2.12-4.377c.126-.018.16.11.036.07-.01-.002-.07-.052-.035-.07Z" clip-rule="evenodd"/><path fill="#6F5B25" d="M18.072 10.196c.035-.003.178-.01.19.018-.681.178-1.04.723-1.404 1.276l-.001.002c.038-.478.757-1.246 1.215-1.296M8.28 14.048l-.608.612-.66.595c.272-.468.742-.817 1.172-1.137zm-.313-.176c.03-.004.082.03.086.053.006.03-.155.184-.344.366-.248.238-.544.523-.576.632-.13-.216.766-1.04.834-1.05Zm2.223-1.26c.097-.02.195.008.29.034.055.015.108.03.16.036h-.208c.049.123.146.104.25.084s.214-.042.289.074c-.212.095-.44.046-.664-.002a2 2 0 0 0-.291-.05c-.015-.06.144-.17.174-.176m8.542.665c.126-.01.353-.027.434.053 0 .061-.855.318-.972.14-.003-.062.476-.187.538-.193m-7.05 7.212c.154.003-.2.965-.312 1.086 0-.387.087-.773.312-1.086m4.55.84c.128.347.172.68.07 1.05-.107-.298-.24-.758-.07-1.05m-5.487-6.056.625 1.47c-.101.047-.614-1.11-.643-1.242l-.005-.023c-.015-.066-.04-.168.023-.205m2.396-.455-.434.682-.573.683c.294-.482.637-.94 1.007-1.365m-2.535-4.552c.213-.029 1.03.91 1.094 1.138q.007.024.015.04c.014.031.02.045-.033.083l-.081-.146c-.104-.188-.215-.39-.353-.537a2 2 0 0 0-.36-.266c-.122-.076-.233-.147-.282-.207q-.017-.02-.03-.03c-.025-.023-.028-.026.03-.075m.52-.035c.274.11.529.277.713.508.027.034.389.575.226.578-.215-.464-.534-.787-.938-1.086Zm6.738 5.217c.06.02-.19.61-.366 1.02a5 5 0 0 0-.155.38c-.07-.147.45-1.424.52-1.4Zm-9.342-1.26c.033 0 .08.027.087.052.02.081-.797.584-.938.63.067-.12.797-.68.85-.683Zm3.82 7.107-.07 1.085c-.105-.313-.046-.78.07-1.085m-1.98-9.173c1.104.203.574.488-.086.052zm-1.458 13.83c.127-.06.372.266.278.384-.172-.167-.177-.16-.197-.13-.01.015-.023.036-.063.043-.103.017-.098-.26-.018-.298Zm1.007-13.13.886.263c-.09.064-1.093-.124-.886-.263m10.037 1.261.59.665c-.244-.133-.527-.376-.59-.665m-1.771-1.75h.027c.023-.004.045-.006.06.016.072.124-.602.27-.695.245-.044-.077.574-.264.608-.262Zm-7.884 0c.057-.009.686.181.712.297-.106.041-.722-.196-.746-.228-.036-.018.028-.07.034-.07Zm8.127.594a1 1 0 0 1 .146 0q.066.003.13 0c-.226.135-.61.197-.884.158q.294-.116.608-.158m-.07-.21.028-.002c.075-.005.154-.01.198.055-.001.042-.737.176-.834.105l.072-.023c.164-.052.407-.128.536-.135m-1.458 3.956.173.385c.014.005.04-.02.067-.05.076-.079.167-.174.072.33-.063-.047-.42-.64-.312-.665m1.285-4.55.015-.002c.028-.003.055-.005.07.018.017.042-.69.342-.797.28.144-.09.564-.29.712-.297Zm-1.042-1.752-.695.84.156-.332zm-1.737-.175c.017.094-.214.458-.26.508l-.016.017c-.037.043-.073.084-.14.07zm3.236 2.871h-.006a1 1 0 0 0-.174.075c-.142.07-.33.161-.434.153 0 .166.725-.15.695-.21-.018-.026-.053-.022-.081-.018m-.197-.438c-.046-.067-.123-.06-.191-.052a1 1 0 0 0-.117.05c-.08.037-.177.084-.23.09-.02.002-.036-.015-.052-.034-.032-.036-.067-.075-.14.017.1.114.728-.028.73-.07Zm-8.491.543.643.123c.002.09-.612-.035-.643-.123m5.556 8.717c.03.243.04.5-.034.736-.037 0-.044-.675.034-.735Zm1.008-.35c.108.121.03.465-.035.596zm-.07-8.087c.198-.08.257.203.139.245-.052.02-.256-.198-.14-.245Zm1.667.28c.027-.013.324.487.208.56z"/><path fill="#6F5B25" fill-rule="evenodd" d="M20.348 13.61c-.328.204-.973.438-1.355.403-.208-.018-.337-.126-.486-.262.1.02.154.053.206.083.067.04.128.075.28.075.14 0 .312-.07.454-.13l.067-.028H19.2l.296-.263-.538.123.729-.49-.191-.053.433-.227h-.416l.66-.28-.694.07.729-.316-.695.07c.06-.094.24-.146.41-.196.224-.066.434-.128.337-.276-.195.092-.503.23-.712.157l.643-.297c-.03-.132-.242-.012-.428.093-.139.077-.261.147-.284.1l.346-.246c-.03-.045-.116-.01-.2.023-.096.038-.19.075-.2-.005l.644-.263c-.186-.035-.36.045-.526.12l-.082.038-.052-.053.26-.192c.056-.124-.166-.016-.282.04l-.066.03q-.114.014-.238.006-.178-.015-.351.03a.5.5 0 0 0-.175.113.6.6 0 0 1-.137.096c-.032.013-.063-.024-.082-.049-.01-.012-.018-.022-.023-.02-.008 0-.017.022-.027.054-.02.056-.05.142-.113.19-.073.057-.912.467-.85.227.023-.092.94-.563 1.409-.802l.24-.125.278-.28a2 2 0 0 0-.137.095c-.17.125-.433.317-.47.237-.006-.013.031-.032.08-.056.088-.044.207-.104.146-.17-.27.294-.569.416-.904.554h-.003l-.256.11c-.04.017-.13.071-.218.124a1.3 1.3 0 0 1-.216.12c-.227-.044.36-.703.434-.77.817-.747 2.904-.824 3.299.438.233.748-.188 2.03-1.146 1.926l.486.105Zm-2.645-2.145c.003.018.024.024.035.026l.006.002.694-.263c-.017-.072-.523.12-.59.158a.2.2 0 0 1-.047.013c-.037.008-.082.018-.092.04a.04.04 0 0 0-.006.024m2.95 1.494a.16.16 0 0 0-.08-.03c-.01 0-.189.06-.19.087l.172.07-.19.228.33-.333a.3.3 0 0 1-.044-.022zm-.843-1.99c.187-.026-.244.363-.33.261l.33-.262Zm.972 1.47h.026c.023-.003.049-.005.06.017-.112.345-.413-.04-.086-.018Zm-1.163-1.489c-.014-.024-.064-.023-.087-.017q-.105.08-.2.172l-.062.056c.035.07.206-.084.296-.165q.041-.04.053-.046m1.267 1.243c.13.062-.165.245-.26.088.02-.003.077-.025.134-.046a1 1 0 0 1 .125-.042Zm-.188-.446c.113-.073.265-.17.084-.149-.014.002-.23.146-.174.21a1 1 0 0 1 .09-.06Zm-.056-.359h.105v.07l-.226.018c-.024-.038.114-.087.121-.088m.053.648c.01.021.316-.094.19-.158q-.016.01-.052.027c-.066.03-.164.075-.138.13zm-.26-.788.19.053c-.06.052-.29.006-.19-.053m.155 1.488c.096.147.284-.027.157-.053l-.03.012a.3.3 0 0 1-.127.041m-.642-1.628.087.053-.157.087zm-1.806 0c.015-.009.13-.006.157.018-.058.106-.245.036-.157-.018m2.119.21c.17-.045.037.137-.035.105-.049-.02.01-.098.035-.105m-.104-.455c.072-.01.032.145-.07.14-.02-.033.05-.137.07-.14m-2.31.42c-.03.005-.033-.015-.034-.027v-.008c.17-.084.152-.07.106-.03a1 1 0 0 0-.073.065Zm.711-.385c.06-.027.075.088.035.105-.06.027-.073-.088-.035-.105" clip-rule="evenodd"/><path fill="#6F5B25" d="m8.69 25.938-.03-.057c-.09-.004-.035.378.07.35s.013-.197-.04-.293m9.278-7.584-.347-.42c-.083.038.217.304.317.393zm1.83-4.004c-.077-.068-.152-.133-.163-.128-.112.06.245.32.33.263a1.3 1.3 0 0 1-.167-.135m-7.355 2.324c.052-.11.135-.284.073-.35l-.033.065c-.055.11-.117.233-.071.354.006-.017.019-.04.03-.069Zm-.24-3.152c.112-.042.174.136.07.175-.112.043-.174-.135-.07-.175m-.14 2.801c.096.046-.065.295-.103.28zm-.207 4.201c.096.074-.05.225-.104.28zm6.112-5.74c.047.014-.024.221-.07.244-.064-.048.044-.254.07-.245Zm-5.226 1.556c-.01-.022-.032-.02-.052-.017-.035.006-.134.144-.07.175zm-.712 2.574c.122-.03.155.11.035.105-.042-.002-.127-.082-.035-.105m4.41-4.2c.058-.01.033.136 0 .14-.048.002-.073-.13 0-.14m.799 1.96c.027.025.03.122 0 .14-.018.01-.095-.1 0-.14m-4.654.035c.049.074.078-.007.035-.07l-.022.02c-.017.013-.03.023-.013.05m3.543-.42c.052-.02.076.05.034.07-.05.022-.076-.055-.034-.07m1.562-2.592c.049.007-.012.108-.035.105-.048-.006.013-.108.035-.105m-6.598-1.26-.035-.035v.07h.035z"/><path fill="#6F5B25" fill-rule="evenodd" d="M15.694 14.994c.01.006.036.003.061 0 .025-.004.05-.007.06 0 .22.14.438.475.64.785.117.183.23.356.332.475q.038-.021.04-.069l.273.7c.057-.24-.016-.464-.09-.69a2.4 2.4 0 0 1-.1-.379l.26.403c.034-.027-.02-.177-.07-.315-.053-.147-.1-.28-.035-.245.006.003.012.023.02.046.025.076.063.19.12-.08.21.187.123.4.044.587-.047.114-.09.22-.062.305.086.261.31-.656.243-.7.114-.093.102-.03.086.055-.01.06-.025.133 0 .172.18-.329.115-.6-.017-.928l.243.28-.208-.49.07-.035.19.298.052-.053-.208-.42.208.21-.138-.385.14.105-.07-.245h.138c.008-.025-.004-.07-.017-.114-.022-.08-.044-.16.052-.13.288.9-.073 1.752-.425 2.581-.088.21-.176.416-.253.622.78-1.062 1.176-2.55.556-3.782-.024.064-.03.22-.035.336-.006.135-.009.212-.034.014-.174-.028-.186.013-.207.081a.3.3 0 0 1-.054.112c-.042.053-.08.062-.112.07-.025.006-.046.011-.06.035-.01.013-.006.055 0 .1a.3.3 0 0 1 0 .11q-.005.005-.029.01c-.07.011-.235.04-.129.358l-.104-.175-.07.21-.104-.175c-.035.29-.038.281-.068.214-.032-.074-.095-.216-.26-.127l.016.403-.139-.21-.087.052.362.924c-.15-.25-.417-.576-.596-.794-.102-.125-.176-.214-.182-.235-.055-.174.023-1.16.104-1.33.176-.369.97-.172 1.25.035-.06.244-.347.572-.573.647a1 1 0 0 1-.228.03c-.136.006-.277.014-.345.093-.194.227.084.658.226.858-.29-.649-.139-.66.143-.684.14-.01.314-.025.482-.122.16-.092.277-.304.382-.495.053-.098.104-.19.156-.257.03-.038.072-.052.114-.066.066-.022.128-.043.13-.144 0-.242-.97-1.564-1.199-1.768-1.338-1.203-4.05-.97-5.088.542-.982 1.433-1.394 3.22-.38 4.762.052.081.435.638.415.315-.002-.033-.129-.237-.277-.476-.185-.298-.404-.65-.452-.785-.279-.778-.282-1.907.191-2.608.07.097.132.205.196.314.194.33.395.673.776.771.08.021.173.022.263.022.222.002.433.003.432.293.235-.462-.098-.515-.45-.572-.166-.027-.337-.055-.453-.128-.987-.62.687-1.09.955-.437.047.114.19.943.174 1.05-.005.027-.108.167-.248.355-.353.478-.938 1.268-.707 1.308.124-.369.993-1.638 1.284-1.75q.005-.002.021.008c.045.024.15.08.257-.079.01.07-.076.13-.15.18-.095.067-.169.118.03.153-.348.223-.508.552-.673.893-.07.146-.143.294-.23.438.194-.118.294-.338.395-.56.078-.173.157-.346.281-.473-.008.097-.145.362-.267.596-.18.348-.326.627.041.191-.317.858.084.76.53.653q.192-.052.39-.075.428-.023.854.005.174.008.345.013l-1.459.105c.342.035.425.25.516.49.043.11.088.227.161.332.095-.017.02-.207-.044-.364-.035-.088-.066-.165-.06-.196.061-.024.128.164.165.267.013.036.022.062.026.066.008.007.02 0 .032-.007.042-.024.106-.06.16.234.033-.054.073-.134.118-.223.106-.213.236-.474.367-.547.198-.11.351-.066.49-.028.12.034.228.064.344-.007.143-.087.176-.264.208-.438.018-.093.035-.186.07-.262.32.264.303 1.447.104.42l-.008.022c-.073.22-.126.378-.305.538-.173.156-.425.228-.67.3-.505.145-.988.284-.736 1.118.153.508 1.97 1.256 2.257.49l-.382-.14c.058-.008.125-.006.194-.003.184.006.384.013.466-.172.1-.225-.06-.27-.198-.308-.103-.028-.192-.053-.15-.147.05-.107.167-.028.24.022.026.018.047.032.056.03.228-.037.08-.733.017-.892-.023-.058-.095-.079-.14-.09q-.028-.009-.034-.015a1.6 1.6 0 0 1-.073-.33c-.035-.21-.077-.466-.17-.65-.05-.102-.244-.44-.382-.42.123.198.437.762.382.98-.014.055-.07.058-.104 0-.098-.175-.196-.484-.292-.787a6 6 0 0 0-.229-.649l-.004-.009c-.02-.045-.08-.18-.135-.13l.174.35c-.05.133-.22-.306-.287-.478-.013-.035-.022-.06-.025-.065m-.024-.063a.3.3 0 0 0 .024.063c-.034-.019-.068-.02-.098-.022-.04-.002-.072-.004-.08-.045a.4.4 0 0 1 .021-.143c.092.01.114.082.133.147m-3.73-2.99c.09-.076.253-.214.194-.273a.5.5 0 0 1-.1.101c-.074.062-.153.13-.143.214zm-.396.497c.055.018-.107.287-.236.505-.076.127-.14.235-.146.266-.086-.01.316-.723.382-.77Zm5.17.643c-.118.011-.229.021-.308-.012-.16-.068-.587.07-.174.07.016.011.125.006.241.001a2 2 0 0 1 .28 0c.133.025.244.085.355.144.081.043.163.087.252.117-.112-.369-.398-.342-.646-.32m-3.017 3.314c.342-.017.7.008 1.056.032.287.02.575.04.854.038q.005-.002.02-.018c.033-.036.092-.099.101.07l-2.622.018c-.188-.096.545-.138.591-.14m2.043-3.185c.044-.017.085-.032.093-.054.15-.076.048-.069-.105-.035 0 0-.185.045-.173.175.001.018.074.108.132.181.04.05.075.092.076.1a.4.4 0 0 1-.014.175c-.02.09-.038.173.031.227q.004-.13.027-.26c.02-.145.042-.3.026-.353-.027-.086-.085-.02-.11.007q-.01.011-.012.01c-.162-.1-.06-.139.03-.173Zm-3.675-.106.02-.002c.084-.007.22-.018.257.072-.048.007-.12.01-.194.012q-.13 0-.257.023-.14.062-.267.145c-.202.12-.434.26-.445.187-.025-.163.758-.428.886-.437m1.024.157c-.01-.047-.12-.07-.156-.052-.09.043-.08.623.034.595.001-.044.06-.162.105-.253.03-.06.054-.107.052-.115 0-.004-.013-.006-.028-.01-.052-.013-.15-.036-.007-.165m.087.403-.087.332.226-.192q-.043.115-.092.216c-.07.15-.138.295-.15.52l-.022-.16c-.04-.259-.085-.565.125-.716m3.507 3.676c.26-.002.39.364.21.525zm-.416.7c.046-.017.323-.02.295.088-.092.154-.507-.012-.295-.088m.486.42c.28.03-.16.26-.295.088 0-.036.28-.09.295-.088m-1.042-.42c.022-.007.298.012.26.123-.099.1-.463-.057-.26-.123m-.208-.525c.233-.062.178.243-.035.175-.096-.03-.02-.16.035-.175m1.014.034-.007.001a.5.5 0 0 0-.14.105c-.04.105.21.023.261-.018.018-.105-.046-.097-.114-.088m-.563.001c.045-.016.22 0 .191.087-.043.133-.396-.013-.19-.087Zm-1.52-.754-.425-.05c-.008.161.11.125.237.086a.5.5 0 0 1 .187-.036zm0 0 .01.001h-.01Zm3.048-3.482c.122-.033.103.214-.035.21-.08-.043 0-.2.035-.21m-1.98.175c.042-.002.18.234.105.28-.036-.023-.242-.276-.104-.28Zm.695 5.496.4.053c-.064.058-.392.046-.4-.053m-1.77-2.03c.1-.002.05.248 0 .245-.048-.08-.096-.173 0-.245m1.353-.91c.037-.029.18.122.105.175-.078.055-.177-.12-.105-.175m-.069-.63c.03.018.182.184.14.21-.082.034-.204-.18-.14-.21m-.174-1.26c.057-.028.196.181.14.21-.07.02-.16-.2-.14-.21m-1.996.261c-.019-.025-.06-.023-.087-.017-.015.003-.163.13-.19.158.052.04.282-.127.277-.14Zm1.892-.612c.08.012.16.103.104.175zm-2.188.42c.02.016.25-.158.14-.175l-.026.016c-.06.037-.123.075-.114.16Zm2.466.35c.06-.024.12.17.07.21zm-4.028-2.276c.013.005.146-.198.104-.245q-.016.025-.042.055c-.047.056-.1.122-.062.19m4.236 3.431c.076.007.15.186.07.176-.02-.003-.112-.135-.07-.176m-2.465-1.505c.04.055-.148.198-.19.158a.7.7 0 0 1 .19-.158m3.854-1.26.035.21c-.06-.057-.106-.17-.035-.21M15.33 14.47c.043-.02.166.116.104.14-.008.004-.183-.103-.104-.14m0-.175c.074-.015.148.05.156.123-.038-.003-.175-.07-.156-.123m.035-.245.07.14c-.077 0-.117-.08-.07-.14m-2.084 2.206c.108-.056.1.102.035.105-.076.003-.066-.09-.035-.105m1.354.49c.077-.04.07.157-.034.14-.013-.007.024-.135.034-.14m1.58 1.715c-.175.03-.116.09 0 .07h.023c.018.002.035.004.047-.017.002-.066-.01-.064-.05-.056l-.008.001zm-.017-1.75c.028.013.03.115 0 .14-.046.04-.037-.158 0-.14m-.73 1.4h.04c.045-.005.09-.008.082.053-.018.004-.158-.014-.12-.053zm-2.326-1.995.018.052-.053.017-.017-.017zm4.237-.98c.087.132.22.363.174.524l-.174-.525zm-.104.174.173.42c-.102.057-.216-.34-.173-.42m-.59-.56a.4.4 0 0 0 .02.08c.022.063.043.125-.02.165-.03-.03-.026-.244 0-.245m.867-.35c.075-.054.043.124 0 .105-.026-.012-.029-.084 0-.105m-7.478 1.404c.1-.14.26-.364.186-.424-.354.47-.735.916-1.117 1.363-.498.584-.997 1.168-1.436 1.805-.935 1.358-1.702 2.77-.78 4.394q.033-.275.062-.557c.095-.908.192-1.847.823-2.54-.45.874-.73 1.895-.59 2.904.031.234.118.465.2.687l.025.066c.062-.338.087-.68.112-1.023.03-.402.06-.804.148-1.2.21-.934.78-2.05 1.32-2.836.075-.109.308-.389.57-.7.422-.508.916-1.1.923-1.19.01-.14-.075-.245-.208-.14-.167.132-1.038 1.263-1.39 1.72l-.103.135a5 5 0 0 0-.208.342c-.115.2-.236.41-.26.41-.212.01.096-.345.292-.572.082-.095.145-.167.14-.18-.007-.026-.05-.007-.1.016-.066.03-.143.064-.177.02a.33.33 0 0 1 .16-.072c.047-.012.096-.024.135-.05.14-.099 1.562-1.913 1.615-2.05a.5.5 0 0 0 .035-.245c-.23.077-.404.344-.56.586-.07.108-.137.21-.204.29-.227.266-.466.53-.708.795-.962 1.057-1.953 2.147-2.244 3.581-.05-.177.045-.51.104-.7.345-1.104 1.16-1.979 1.96-2.836.522-.56 1.037-1.112 1.41-1.716l.023-.038c.072-.115.163-.258.132-.4-.054.043-.09.132-.125.222-.056.14-.113.281-.24.252-.004-.009.03-.056.075-.12zm-2.4 3.805c.104-.156.212-.32.26-.483-.304.382-.64.85-.765 1.33.096-.187.205-.365.315-.544l.085-.138q.049-.081.105-.165" clip-rule="evenodd"/><path fill="#6F5B25" fill-rule="evenodd" d="M18.436 15.606c-.027-.023-.13-.107-.156-.088-.128.1.222.714.295.823.334.5.776.95 1.223 1.408.851.87 1.721 1.76 1.902 3.038l.001.005c.007.043.052.318-.036.275-.09-.816-.496-1.559-.972-2.206-.283-.385-.66-.78-1.039-1.177-.5-.524-1.002-1.05-1.288-1.553-.05-.088-.225-.38-.208-.105.003.047.392.75.451.84.198.3.451.58.706.86.353.39.71.783.927 1.24q-.451-.556-.91-1.11-.382-.458-.757-.92a1 1 0 0 1-.084-.128c-.143-.23-.4-.644-.472-.397-.064.221.533.88.924 1.312.131.145.24.264.291.333 1 1.315 1.613 2.666 1.737 4.341.007.1 0 .211-.01.328-.02.253-.04.53.097.74.425-.916.22-1.948-.018-2.888.35.455.387 1.041.425 1.617.014.224.03.446.061.66.565-.632.433-2.03.174-2.802-.233-.693-2.693-3.972-3.264-4.447zm2.24 3.553.032.04c.177.217.395.484.42.766zm.556 1.47-.382-.804c-.053.035-.045.055-.03.09l.012.032c.036.111.168.317.278.488.048.076.092.144.122.195Zm-5.088-.997c-.285-.445-1.673-.594-2.17-.543-.312.032-1.232.283-1.407.543-.273.406-.23 1.052.295 1.207l.087-.087a.8.8 0 0 0-.045-.227c-.04-.132-.077-.246.062-.456.044.133.037.273.03.405-.01.234-.02.444.248.54v-.665c.015.06.022.123.03.186.018.157.035.31.178.41.085.001.087-.088.09-.185.002-.087.005-.18.067-.218a.7.7 0 0 0 .156.578c.127-.054.184-.036.242-.018q.032.012.07.018c.674.08 1.55-.012 1.91-.595l-.017.227c.4-.106.37-.817.174-1.12m-2.275-.368c.048.086-.32.427-.364.333zm-.868.14c.15-.019-.21.382-.243.385zm.368.18c.105-.068.241-.157.188-.25l-.278.315c.02-.018.053-.04.09-.065m-.02-.285c-.015.117-.15.237-.252.33l-.06.055c.017-.146.171-.27.283-.36zm2.048 1.086c.021.003.058.4-.034.42-.052-.048.004-.425.034-.42m-.555.07.07.49c-.11-.032-.1-.49-.07-.49m.243.49c.02 0 .058-.37-.035-.385-.04.105-.013.207.015.31zm-.66-.35c.027.004.028.3 0 .35-.096-.084-.05-.21-.013-.313zm1.25-.28c.095.015.051.22.035.28-.073-.047-.062-.212-.035-.28m-.868-1.05c.038-.018.202.16.104.21l-.01-.014c-.038-.046-.143-.174-.094-.197zm-.677.052c-.014-.025-.063-.024-.087-.018-.01.003-.154.135-.139.175zm.885-.018c.071.005.104.05.14.096q.022.032.051.062c-.06.047-.17-.108-.19-.158Zm.313 0 .14.175c-.064.028-.17-.105-.14-.175m-1.459 1.296c.096.004.058.143 0 .175a.19.19 0 0 1 0-.175m.764-1.33c.01-.005.094.107.07.14-.07.018-.123-.119-.07-.14m-.382.034c.052.03.02.14-.07.105-.028-.025.065-.108.07-.105m.174 0c.023.003.083.087.035.105-.028.01-.14-.117-.035-.105m-2.014-3.29c.023.007-.04.175-.12.38-.104.276-.233.617-.21.722.034.155.073-.055.098-.193a.5.5 0 0 1 .024-.105c.02-.015.494-.009.52 0 .01.003.051.05.104.107.081.09.19.21.244.243.154.096.343.136.528.176.392.083.764.163.74.752-.034.775-.995.99-1.68 1.143a8 8 0 0 0-.283.065l.052-.123-.208-.07.52-.175c-.434.123-.476.055-.538-.047a.4.4 0 0 0-.138-.145q-.022-.01-.074-.008c-.088 0-.225 0-.29-.15-.115-.257.078-.31.22-.35.067-.02.124-.036.126-.07.01-.126-.177-.093-.293-.073-.054.01-.093.017-.089.003l-.009-.085c-.024-.229-.052-.49.08-.685a.36.36 0 0 1 .16-.12c.037-.018.07-.033.082-.055.016-.027.05-.16.087-.307.042-.167.088-.353.121-.428.02-.047.202-.41.226-.403Zm-.156 1.382a.4.4 0 0 0-.296-.052c-.227.063-.305.614 0 .455.128-.067.053-.14-.014-.203-.044-.043-.084-.082-.055-.112zm-.018.613c.1-.022.345.048.26.158-.094.123-.629-.074-.26-.158m-.057.472-.082-.017c-.555.03.12.29.296.053-.04.004-.14-.02-.214-.036m-.047-.892c.073-.033.296 0 .295.122-.117.084-.512-.023-.295-.122m.46 1.084-.008.001c-.025.002-.28.073-.296.123l.434-.053c.016-.08-.076-.075-.13-.07Zm.34-.629c.01-.006.265-.03.26.053-.059.126-.4.024-.26-.053m-.279-.49c.04-.026.23.032.226.122-.09.087-.344-.045-.226-.122m.486-.035c.07-.043.27.02.191.122-.07.093-.302-.055-.19-.122Zm-.512-.47-.026.015v-.014l.001-.013c.004-.069.008-.148-.07-.096a.23.23 0 0 1-.012.13c-.012.033-.017.047.046.063.037.01.225.007.243-.018l-.087-.122a.6.6 0 0 1-.095.055m-.287-.125c.032.02.036.251-.034.21-.034-.067-.034-.163.034-.21m.21 1.54c.117-.062.154.085.033.07-.007 0-.069-.052-.034-.07Zm.242-.42c.048.006-.012.108-.035.105-.048-.006.012-.108.035-.105" clip-rule="evenodd"/><path fill="#6F5B25" fill-rule="evenodd" d="m18.142 13.629 3.003 3.414.1.136c.446.613.884 1.213 1.08 1.965.15.565.325 1.437-.016 1.943a4 4 0 0 1-.076-.683 4 4 0 0 0-.08-.7c-.24-.976-1.166-1.911-2.053-2.807-.581-.587-1.145-1.156-1.49-1.71l-.006-.01c-.125-.2-.314-.503-.254-.742l.677.822zm.382.526c.408.774 1.025 1.426 1.642 2.076.833.88 1.664 1.756 1.97 2.93-.394-1.063-1.146-1.887-1.896-2.71-.653-.715-1.304-1.43-1.716-2.296m-1.216 8.578q-.041.113-.097.22c-.045.09-.09.18-.094.217-.008.056.012.204.034.365.035.268.076.57 0 .545l-.155-.543c-.197.29-.11.583-.018.89.045.15.09.3.105.458.043.463-.017.92-.078 1.378-.03.235-.062.47-.08.705.554-.823.6-1.91.574-2.888l.226.438.122-.473-.018 2.573c.683-1.06.619-2.5.4-3.694l-.07-.034c-.403.34-.5.425-.347.98-.13.168-.215-.236-.256-.432-.01-.046-.017-.08-.022-.093a1.3 1.3 0 0 0-.1-.194c-.074-.123-.145-.241-.126-.418m.73.49c.097.063.212.61.104.63-.136-.113-.126-.458-.104-.63m-.695.035.14.665c-.053.014-.274-.695-.14-.665m.834 1.47c.025 0 .03.338 0 .385-.027 0-.027-.385 0-.385M9.564 14.154h.004c.029-.003.07-.007.083.018-.337.399-.7.784-1.062 1.17-1.226 1.308-2.462 2.625-2.776 4.484-.357-1.523.623-3.255 1.737-4.236.2-.177 1.886-1.422 2.014-1.436m-2.118 1.822-.8.98c-.13-.062.54-.724.746-.927zm-.792 1.348c.11-.137.24-.297.236-.473-.04.05-.377.478-.277.525l.04-.052Zm-.32.577c.042.014-.015.238-.07.21-.06-.042.052-.216.07-.21" clip-rule="evenodd"/><path fill="#6F5B25" fill-rule="evenodd" d="M18.87 14.188c1.212.757 2.444 1.55 3.178 2.819.414.717.962 1.84.607 2.643-.356-1.692-1.443-2.862-2.54-4.044-.428-.46-.857-.922-1.245-1.418m2.427 2.234q.085.073.16.148.015.023.025.048c.046.094.14.29.201.267.024-.11-.07-.187-.154-.253a1 1 0 0 1-.072-.062l-.022-.032-.024-.036c-.128-.187-.256-.374-.457-.492.066.17.206.293.343.412m.56.848c.05-.023.22.172.14.21-.029-.015-.184-.19-.14-.21m.312.63c.042-.02.166.115.104.14-.056.023-.13-.127-.104-.14M9.285 21.89c.008.104.237.32.384.457.067.063.117.11.12.122.005.024-.025.102-.064.198-.074.188-.176.447-.092.52.087.075.115-.132.14-.323.017-.132.033-.256.068-.273.06-.03.31.048.33.123.018.062-.093.465-.209.89-.112.409-.23.838-.243 1-.025.306 0 .623.024.94.022.29.044.58.028.863-.694-1.442-.927-2.95-.486-4.516zm.244 2.592c.037 0 .192-.68.07-.735l-.029.09c-.066.206-.144.453-.04.645Zm-.14-2.24.018.612-.087.122.07-.735Zm.21 2.625c.03.02.034.252-.036.21-.034-.066-.034-.163.035-.21Zm-.348-1.295c.017-.01.092.113.034.14-.064.03-.072-.12-.034-.14m9.718-1.37c.11-.11.23-.233.248-.311.09-.014.176.533.191.648.167 1.28-.153 2.584-.78 3.693.078-.942.08-1.817-.088-2.748a2 2 0 0 0-.099-.323c-.102-.268-.177-.464.255-.64.087.018.087.16.088.31.001.147.002.303.086.355.12-.005.01-.395-.052-.613a1 1 0 0 1-.035-.14c.005-.044.092-.132.187-.23Zm-.133 2.735c.102-.163.048-1.22-.07-1.26l-.087.087zm.312-2.66c-.023.058.014.255.043.414.02.114.038.209.026.215-.175.107-.122-.63-.069-.63Zm-.104 2.205c.077.056.077.188 0 .245a.36.36 0 0 1 0-.245m.104-.84c.06-.052.042.143-.035.14a.3.3 0 0 1 .035-.14m-9.046 1.628a5.75 5.75 0 0 1 .26-2.4c.026.073.23.227.378.34.088.068.157.12.16.134a.5.5 0 0 1-.04.14c-.067.183-.177.485-.047.577.027.006.067-.13.118-.302.09-.298.21-.706.351-.695l-.416 2.24c-.067.04-.068.008-.068-.032l-.002-.038c-.005-.026 0-.138.008-.277.014-.297.034-.718-.025-.685-.127.5-.124 1.016-.122 1.532.002.284.003.568-.017.848-.205.175-.526-1.266-.538-1.383Zm.468-2.048c.07.022-.175.672-.243.735-.067-.085.206-.747.243-.735m1.424.525c-.259.54-.304 1-.26 1.592.057.78.277 1.862.712 2.504l.364-3.94-.313.596-.086.858c-.133.11-.12-.262-.109-.644.012-.356.023-.72-.082-.704-.145-.036-.134.317-.123.68.011.348.022.705-.103.738zm.278 2.556c.02.003.06.369-.035.385-.053-.046.01-.39.035-.385m2.397-1.086c.05.896-.01 1.795-.18 2.676-.073.435-.157.94-.41 1.28l-.505-3.624.434 1.208.018-.507c.24.467.29.15.356-.254.052-.323.113-.701.286-.78h.001Zm-.4 2.924-.052-.228-.07.63zM12.363 14.82a2 2 0 0 0-.143.174l-.042.057c-.05.062-.105.133-.083.213l.003.01c.063-.023.095-.167.111-.24a.2.2 0 0 1 .011-.04.1.1 0 0 1 .027-.01c.056-.018.182-.057.233-.2.09.048-.146.375-.28.562-.042.057-.074.1-.084.12-.04.075-.078.164-.117.255-.082.195-.17.402-.3.516l.035-.385c-.136.048-.133 1.1-.087 1.137l.01-.01c.02-.026.068-.09.111-.007l-.086.157-.47-.892.14.07c-.083-.382-.03-.656.173-.98l-.26.332.156-.508c-.222.158-.22.414-.218.652 0 .084.002.166-.008.24-.278-.42-.192-.84-.017-1.277l-.139.175-.12.438c-.112-.15-.02-.321.064-.482.037-.07.073-.138.09-.2l-.277.28c-.005-.072.077-.24.153-.391.122-.248.226-.456-.1-.152-.063-.03.014-.126.095-.228.073-.093.15-.19.13-.245-.044-.083-.127.064-.21.213-.078.135-.156.273-.207.242l.4-.613c.12.125.076.262.017.403l.121-.122c.04.056.06.108.077.152.034.086.056.143.184.145-.056.149-.012.132.036.115.056-.02.118-.043.016.218l.243-.14-.035.245.157-.193c.145-.008.076.076-.005.176-.063.078-.135.166-.117.227l.313-.35c.121.033.071.088.012.155-.045.049-.094.104-.082.16.023.008.094-.063.174-.143.133-.131.29-.288.295-.155 0 .01-.046.063-.1.124m-.786.664-.034 1.19c-.17-.415-.166-.787.034-1.19m-.486.07.14-.49-.054.108c-.063.12-.13.246-.086.382" clip-rule="evenodd"/><path fill="#6F5B25" fill-rule="evenodd" d="m14.043 21.75.173 1.402c.038-.158.029-.403.02-.648-.011-.272-.022-.545.033-.7.009-.026.08-.083.104-.035l.017 1.208c.051 0 .077-.234.105-.498.033-.305.07-.647.155-.71l.07.035c-.05.357-.045.732-.04 1.104.003.34.007.677-.03.997-.033.294-.132.568-.232.843-.104.29-.208.579-.236.89-.094.06-.07-.285-.057-.455q.005-.07.005-.088a17 17 0 0 0-.092-.802c-.055-.42-.11-.84-.117-1.263-.002-.117-.002-1.314.122-1.28m.278 2.243-.035.735c-.104-.24-.04-.5.035-.735m-2.778-5.602c.081.044-.132.19-.351.34-.197.134-.399.272-.396.342-.01.073.054.032.09.01q.129-.08.243-.18a1.8 1.8 0 0 1 .318-.224c.041-.028.075-.05.113.01-.812.64-1.262 1.667-1.32 2.695l-.104-.49-.017 1.068c-.695-1.338.042-3.063 1.424-3.571m-1.042 1.12c.12.006-.058.226-.104.21z" clip-rule="evenodd"/><path fill="#6F5B25" d="M20.365 25.427c.123.013.163.835-.156.753-.045-.135-.01-.22.025-.302.033-.08.065-.157.027-.276-.072.097-.117.303-.147.438-.038.175-.05.23-.061-.228-.095.042-.123.157-.15.266-.033.128-.062.248-.198.224-.046-.008.037-.455.053-.473.022-.025.069-.02.106-.016.023.003.043.005.05 0l.19-.164.003-.003q.128-.111.258-.219m-1.041.455c.157-.036.217.185.138.315l.226-.227c-.156.532-.246.39-.31.288-.02-.034-.038-.063-.054-.06-.026.003-.035.034-.045.07-.016.055-.035.121-.13.104l.036-.28a1 1 0 0 0-.112.177c-.061.116-.111.212-.305.243.072-.123.45-.606.556-.63m-10.905-.035c.11-.018.105.27 0 .315-.033-.055-.097-.299 0-.315m12.537-.525.087.122-.053.088-.086-.123z"/><path fill="#6F5B25" fill-rule="evenodd" d="M7.202 24.201c.096.198.065.428.033.662-.026.183-.05.37-.016.546.083-.065.09-.22.098-.374a1 1 0 0 1 .04-.29c.092-.087.08.435.07.826a3 3 0 0 0 0 .398c.1.287.111-.173.121-.55.006-.232.012-.432.036-.412.138.616.16.513.186.38.013-.064.027-.134.057-.135.055-.002.073.13.08.194a.1.1 0 0 0 .007.033c.034.047.106.082.18.12.092.045.186.091.202.161a4 4 0 0 1-.035.385c-.055.106-.382.05-.616.01a1 1 0 0 0-.235-.028c-.035.012-.274.771.017.543l.052-.333c.016.31.286.306.562.302.106 0 .213-.003.307.013 1.428.244 4.153 1.58 4.497 3.134.077.348.206 1.595-.313 1.54-.026-.025-.024-.163-.02-.332.005-.273.012-.626-.1-.7-.002.072.004.16.012.256.03.392.07.913-.36 1.004-.485.102-.49-.36-.495-.857-.004-.362-.008-.74-.2-.929q.009.069.025.17c.09.58.288 1.87-.477 1.686-.366-.089-.39-.653-.413-1.143-.01-.244-.022-.47-.073-.608-.13.188-.08.5-.03.805.061.384.122.76-.178.876-.79.305-.704-1.073-.66-1.506-.152.272-.139.56-.125.855l.004.073-.053.088c-.19-.242-.128-.572-.07-.875q.02-.109.036-.21c-.29.396-.189.963.121 1.312-.488.354-.496-.307-.5-.76a2 2 0 0 0-.02-.325c-.074-.286-.62-.359-1.23-.44-.7-.094-1.486-.2-1.757-.646-.374-.616.101-1.34.531-1.995.225-.342.437-.666.51-.945.075-.286.077-.602.08-.922.002-.36.004-.728.112-1.057m1.804 5.266c-.134-.278-.27-.558-.484-.784.006.192.16.406.307.613.114.16.225.315.266.455l.006.021c.016.055.022.073-.024.137-.102-.056-.34-.428-.537-.735-.145-.225-.267-.415-.296-.42-.203-.038-.013.136.06.202q.015.012.027.025l.004.007c.048.08.371.62.256.64a1.15 1.15 0 0 0-.475-.106c-.25-.017-.456-.03-.567-.419-.073-.004-.043.064-.009.138.042.093.088.195-.06.177-.112-.013-.13-.112-.149-.213-.015-.082-.03-.165-.094-.207l.034.35q-.065-.01-.134-.027c-.168-.04-.342-.08-.473.08.278.077.597.112.917.147.405.045.814.09 1.15.22.134.053.25.182.32.257.031.036.053.06.061.06.016-.004.165-.28.156-.299-.005-.012-.022-.014-.042-.017-.032-.003-.074-.009-.097-.053zm-1.839-2.324.035.105c-.523.58-.885 1.295-.573 2.083l-.122.017c-.317-.774.111-1.613.66-2.205m-.378.228c.162-.172.415-.44.344-.473a2.9 2.9 0 0 0-.712.927c-.064.135-.514 1.361-.19 1.348.03-.15.047-.304.064-.457q.027-.346.126-.68c.013-.04.221-.49.243-.526.011-.018.061-.07.125-.139m.413.122c.02-.008.075-.006.087.017-.185.26-.48.74-.52 1.05a1 1 0 0 0 .005.125c.016.222.046.641-.093.523-.207-.175.227-1.602.521-1.715m-.526-.285c.31-.328.623-.66.491-1.15l-.798 1.505a4 4 0 0 1 .307-.355m.7.495-.19.613c-.18-.026-.15.113-.12.258.018.085.037.173.014.232l-.156.017c-.017-.445.197-.778.452-1.12m-1.39 1.155.278-1.155-.022.038c-.187.327-.419.728-.256 1.117m5.487.14c.11-.004.323-.01.417.035.225.11-.098.108-.45.105-.253-.002-.52-.005-.615.034.165-.099.48-.167.648-.174m-3.49-.354c.005-.155.011-.31-.017-.45-.052.126-.12 1.092-.087 1.137.015.02.213.052.26.052-.176-.189-.166-.464-.156-.739m-.33-.626c-.013.052-.01.162-.01.287.005.266.01.6-.128.588-.084-.007.054-.798.138-.875m-.347.84.174-.91c-.02.054-.052.12-.086.19-.12.247-.273.561-.088.72m.556-.84-.104 1.05-.052-.507zm1.945 3.221a3.4 3.4 0 0 0 0-.77l-.053.402zm.034-1.996c.088-.002.07.057.05.118-.017.055-.035.11.02.127l.19-.052-.156.157c-.11-.038-.262-.345-.104-.35m-1.18-1.085c.07-.006.165.381.07.385-.08-.1-.193-.275-.07-.385m-.452.84.104.49c-.128-.047-.118-.21-.108-.359q.006-.07.004-.13Zm.73-.14.208.385c-.085-.002-.276-.35-.208-.385m.624.175c.093-.053.055.057.013.175-.03.084-.06.172-.047.21-.113-.045-.005-.362.034-.385m2.246 1.868a2 2 0 0 1-.023-.222c-.03 0-.048.543.035.595.023-.125.005-.25-.012-.373m-3.774-5.124.035.315c-.155.002-.07-.314-.035-.315m-.277-.175c.093.093.072.24.034.35zm1.632 3.081c.078.06.051.14.025.22a.5.5 0 0 0-.025.095c-.056-.088-.096-.233 0-.315m1.39 1.926c.095.041.066.561.034.56zm-1.703-2.206c.052.082.096.204 0 .28-.05-.082-.096-.204 0-.28m-2.118.595c.062-.047.132.162.07.21-.063.048-.133-.162-.07-.21m.312-3.43a.6.6 0 0 1 0 .314c-.079-.063-.08-.247 0-.315zm1.98 3.71c.046 0 .167.217.07.21-.05-.003-.187-.21-.07-.21m-1.042-.805c.022.026.086.165.035.175-.034.007-.084-.132-.035-.175m-.73-1.47c.053-.02.077.051.036.07-.05.022-.078-.055-.036-.07m2.64 2.485.052.018-.052.052-.017-.017zm11.078-5.147c.01.233 0 .486-.01.742-.019.4-.036.81.027 1.166.047.264.19.52.336.783.147.265.298.536.36.828.077.373.17 1.306-.175 1.505.128-.664.183-1.35-.19-1.943l.017.067.02.074c.107.384.197.707.153 1.137-.014.138-.128.703-.313.7.363-.846.172-1.623-.364-2.328-.029.146.066.292.165.444.065.1.132.203.165.31.166.54.15 1.154-.087 1.662-.139.023-.36.04-.622.057-.878.063-2.209.16-2.382.66-.049.142-.044.297-.04.452.005.144.01.288-.03.424-.038.135-.342.564-.45.28-.022-.057.006-.2.041-.377.075-.377.181-.912-.094-1.11.16.42.1 1.696-.486 1.75-.494.044-.423-.523-.359-1.039.035-.274.067-.533.012-.677-.108.133-.132.423-.157.73-.037.457-.077.95-.4 1.02-.64.142-.529-.873-.462-1.474.015-.137.028-.253.03-.329-.167.146-.177.48-.187.816-.012.425-.025.854-.352.918-.562.108-.545-.467-.53-.958.005-.204.01-.394-.026-.513-.114.386-.135.822-.017 1.208-.448.143-.406-.74-.382-1.015.12-1.375 1.83-2.3 2.97-2.819 1.213-.55 2.286-.79 3.628-.788v-.63c-.18.05-.157.222-.134.392.011.08.022.157.012.221-.047-.033-.072-.154-.097-.27-.027-.134-.054-.262-.11-.255q-.006.002-.02.015c-.05.044-.167.147-.207-.068-.01-.057.193-1.135.295-1.103.004.12-.03.237-.065.352-.057.192-.113.38.013.576.034.023.053-.153.078-.374.034-.308.078-.702.183-.764.052.067.005.23-.043.395-.06.205-.12.413.008.446.165.042.157-.375.151-.683-.002-.122-.004-.227.005-.28.014-.08.062-.19.1-.28zm-2.952 5.708c.071.018.895-1.125.764-1.226-.039.104-.28.395-.49.648-.17.204-.32.383-.326.42-.008.047 0 .144.052.158m1.32-1.19c.033.166-.067.27-.175.38-.087.09-.178.184-.207.32l-.104-.14c-.046.18-.173.263-.365.262l.85-.823zm-2.934.297c.021-.104-.927-.168-1.025-.158-.027.003-.37.088-.347.175zm2.066-.333c.122.06-.51.92-.59.98-.077-.05.138-.337.33-.592.125-.166.241-.32.26-.388m2.361-1.26c.191.34.32.73.243 1.12zm-3.125 2.276c.284.124.195.527.131.816l-.027.13a4 4 0 0 0-.104-.946m1.146-.63c.174-.018.458-.718.208-.666-.03.007-.053.122-.08.256-.03.16-.068.346-.128.41m.833-.666c.105.072.065.61-.035.596-.115-.164-.04-.382.02-.553zm.521-.385c.114.148.17.43.07.595-.127.028-.094-.515-.07-.595m-2.952 2.31c.12.202.157.445.07.666-.103-.204-.108-.442-.07-.666m3.612-1.855c.102.003-.026.47-.139.49a.49.49 0 0 1 .14-.49Zm-.973.455c.104-.004-.038.456-.069.456-.106-.104-.029-.257.033-.38zm1.077-2.345-.07-.595-.003.026c-.02.181-.052.433.073.57Zm-1.458 2.52c.152.023.015.39-.07.316-.057-.05-.005-.27.07-.316m-2.362.316c.125-.007.27-.429.07-.316-.018.01-.012.05-.006.093.01.062.02.134-.03.153-.027.01-.052-.017-.076-.045-.034-.039-.068-.078-.114-.008zm3.785-.42c.188.027-.094.367-.173.245-.04-.06.16-.248.173-.245m-.972-.7-.035.42c-.093 0-.054-.376.035-.42m-5.14 2.1c.115.042.03.56 0 .56a1.8 1.8 0 0 1 0-.56M18.245 29c.074.048-.088.44-.139.42l.14-.42Zm.348-.63c.056.138-.015.278-.105.384zm-2.188 2.8c.036 0 .028-.677 0-.735l-.035.385zm4.306-1.995c.18-.055-.052.31-.139.28-.05-.025.09-.266.14-.28Zm-.023-1.056a1 1 0 0 1-.047-.1c-.077.097.048.32.102.416l.003.004c.065-.08-.003-.212-.058-.32m.092.495a.63.63 0 0 1-.07.456c-.058-.08 0-.244.04-.364a1 1 0 0 0 .03-.092m-.486.876c.09.057.22-.162.14-.245l-.03.03c-.063.056-.182.167-.11.215m-4.792 1.19c.038.15.001.342-.035.49-.024-.156-.05-.345.035-.49m2.467-1.55c.02-.112.052-.292-.036-.376l-.002.01c-.02.112-.052.291.037.375zm2.5-.236c.096 0 .07.23-.036.245-.094-.03 0-.244.035-.245Zm.451-.968-.035-.082c-.026.06.018.382.07.385.064-.09.011-.204-.035-.303m.347.863c.1-.002.053.245 0 .245l-.053-.087zm-1.667-.385c.095.016.051.22.034.28-.094-.012-.052-.217-.034-.28m-1.39.105c.1-.003.05.21 0 .21-.066 0-.07-.207 0-.21m-.486.455.035.245c-.082-.012-.099-.25-.035-.245m1.771.35c.158.02-.167.283-.12.088a.5.5 0 0 1 .121-.087Zm1.53-1.015c.093.006.061.177 0 .21a.27.27 0 0 1 0-.21m-3.092 1.016c.011-.004.116.136.07.175-.055.025-.12-.158-.07-.175m-.209 0c.096.003.058.143 0 .175a.19.19 0 0 1 0-.175m2.71-1.47c.06-.039.073.121.034.14-.064.028-.072-.117-.034-.14m-.244.384c.027.026.03.123 0 .14-.018.011-.095-.099 0-.14m-.313.035c.064-.01.041.14-.034.105-.023-.01.03-.104.034-.105" clip-rule="evenodd"/><path fill="#6F5B25" fill-rule="evenodd" d="M21.418 25.089c.034-.415.067-.828.023-1.132l-.043.287c-.125.809-.273 1.78.06 2.497.025.052.075.11.127.17.058.07.12.143.15.215.22.52.724 1.959.123 2.328-.26.16-.893.22-1.527.283-.521.05-1.043.1-1.357.207-.099.034-.343.12-.346.245.256-.118.814-.18 1.431-.246 1.078-.118 2.336-.255 2.51-.752.123-.35-.037-.957-.174-1.295-.096-.235-.305-.507-.505-.77-.213-.275-.416-.54-.468-.735-.084-.326-.044-.816-.005-1.302Zm.857 4.19c.358-.055-.064-1.694-.348-1.89.027.149.1.324.17.502.09.223.183.45.194.636.003.033-.012.114-.03.21-.041.234-.098.56.014.542m-7.328-7.562.052 1.348.226-1.243c.212.979.18 2.063-.418 2.87zm.104 1.645c.034.117.012.233-.01.35a2 2 0 0 0-.024.176c-.027 0-.05-.48.034-.526m-1.563-1.575.104 1.155c.073-.156.063-.344.053-.53-.012-.222-.024-.443.104-.608l.12 3.029c-.46-.948-.775-2.012-.381-3.046m.07 1.576c.027 0 .027.175 0 .175-.03-.03-.024-.175 0-.175" clip-rule="evenodd"/></g><defs><linearGradient id="b" x1=".951" x2="28.023" y1="34.605" y2="34.605" gradientUnits="userSpaceOnUse"><stop stop-color="#243B2E"/><stop offset=".475" stop-color="#355945"/><stop offset="1" stop-color="#243B2E"/></linearGradient><linearGradient id="c" x1=".846" x2="28.127" y1="4.246" y2="4.246" gradientUnits="userSpaceOnUse"><stop stop-color="#243B2E"/><stop offset=".475" stop-color="#355945"/><stop offset="1" stop-color="#243B2E"/></linearGradient><clipPath id="a"><path fill="#fff" d="M0 0h29v40H0z"/></clipPath></defs></svg>