<svg xmlns="http://www.w3.org/2000/svg" width="35" height="40" fill="none"><path fill="#fff" fill-rule="evenodd" d="M5.545 2.435V0H0v22.435C0 32.135 7.835 40 17.5 40S35 32.136 35 22.435V0h-5.545v2.435H20.1V0h-5.544v2.435h-9.01Zm9.01 31.633a11.996 11.996 0 0 1-9.01-11.475 11.76 11.76 0 0 1 5.559 3.132 11.86 11.86 0 0 1 3.45 8.343Zm.47-12.279a17.4 17.4 0 0 1 2.302 2.862 17.4 17.4 0 0 1 5.153-5.173 17.35 17.35 0 0 1-5.153-5.172 17.4 17.4 0 0 1-5.154 5.172 17.3 17.3 0 0 1 2.851 2.311Zm14.43.725c-.037 5.697-4.028 10.45-9.356 11.636v-.063a11.87 11.87 0 0 1 3.45-8.362 11.8 11.8 0 0 1 5.906-3.21ZM14.135 8a11.86 11.86 0 0 1-3.031 5.232 11.8 11.8 0 0 1-5.56 3.132V8zm15.32 8.442V8H20.52a11.86 11.86 0 0 0 3.03 5.232 11.8 11.8 0 0 0 5.906 3.21Z" clip-rule="evenodd"/></svg>