<svg xmlns="http://www.w3.org/2000/svg" width="35" height="40" fill="none"><path fill="#fff" fill-rule="evenodd" d="M29.455 2.435V0H35v22.435C35 32.135 27.165 40 17.5 40 8.243 40 .664 32.785.041 23.652H0V0h5.545v2.435H14.9V0h5.544v2.435zm0 20V19.02a23 23 0 0 1-2.001 1.836c-2.342 1.905-5.093 3.394-8.085 4.403a29.5 29.5 0 0 1-9.401 1.524H6.353c1.735 4.478 6.072 7.652 11.147 7.652 6.603 0 11.955-5.373 11.955-12m-14.028-4.191a17.5 17.5 0 0 1-3.542 2.898 23.7 23.7 0 0 0 5.719-1.159c2.409-.812 4.566-1.992 6.358-3.45s3.174-3.157 4.102-4.982A12.8 12.8 0 0 0 29.267 8h-9a19 19 0 0 1-1.12 4.323 18.4 18.4 0 0 1-3.72 5.92Zm-9.882-.43V8h9.103a13.4 13.4 0 0 1-.665 2.297 12.8 12.8 0 0 1-2.59 4.128 11.8 11.8 0 0 1-3.819 2.718 11 11 0 0 1-2.03.672Z" clip-rule="evenodd"/></svg>